<?xml version="1.0" standalone="no"?>
<!DOCTYPE svg PUBLIC "-//W3C//DTD SVG 20010904//EN"
 "http://www.w3.org/TR/2001/REC-SVG-20010904/DTD/svg10.dtd">
<svg version="1.0" xmlns="http://www.w3.org/2000/svg"
 width="934.000000pt" height="846.000000pt" viewBox="0 0 934.000000 846.000000"
 preserveAspectRatio="xMidYMid meet">
<metadata>
Created by potrace 1.16, written by Peter Selinger 2001-2019
</metadata>
<g transform="translate(0.000000,846.000000) scale(0.100000,-0.100000)"
fill="#00417b" stroke="none">
<path d="M817 8453 c-4 -3 -7 -17 -7 -30 0 -12 -4 -23 -10 -23 -6 0 -10 -40
-10 -100 0 -60 -4 -100 -10 -100 -6 0 -10 -50 -10 -130 0 -80 4 -130 10 -130
6 0 10 -40 10 -100 0 -55 4 -100 9 -100 4 0 11 -19 14 -42 3 -24 11 -44 16
-46 6 -2 11 -21 11 -43 0 -21 5 -39 10 -39 6 0 10 -16 10 -35 0 -24 5 -35 15
-35 10 0 15 -11 15 -35 0 -19 5 -35 10 -35 6 0 10 -11 10 -25 0 -16 6 -25 15
-25 9 0 15 -9 15 -25 0 -14 5 -25 10 -25 6 0 10 -11 10 -25 0 -14 5 -25 11
-25 14 0 39 -25 39 -39 0 -6 -7 -11 -15 -11 -8 0 -15 5 -15 11 0 17 -27 39
-49 39 -12 0 -21 4 -21 9 0 5 -10 13 -22 17 -13 4 -30 15 -39 25 -9 11 -26 19
-38 19 -11 0 -21 5 -21 11 0 17 -27 39 -49 39 -12 0 -21 6 -21 15 0 8 -7 15
-15 15 -8 0 -15 5 -15 10 0 6 -10 10 -23 10 -15 0 -29 9 -37 25 -8 16 -22 25
-37 25 -13 0 -23 5 -23 10 0 6 -11 10 -25 10 -14 0 -25 5 -25 11 0 17 -27 39
-49 39 -12 0 -21 6 -21 15 0 8 -7 15 -15 15 -8 0 -15 5 -15 10 0 6 -7 10 -15
10 -9 0 -26 11 -39 25 -13 14 -33 25 -45 25 -11 0 -21 5 -21 10 0 6 -9 10 -19
10 -10 0 -21 7 -25 15 -3 8 -15 15 -26 15 -19 0 -20 -6 -20 -220 0 -140 4
-220 10 -220 6 0 10 -27 10 -60 0 -47 3 -60 15 -60 11 0 15 -12 15 -50 0 -27
5 -50 10 -50 6 0 10 -11 10 -25 0 -14 5 -25 10 -25 6 0 10 -14 10 -30 0 -18 6
-33 15 -36 8 -4 15 -17 15 -30 0 -13 5 -24 10 -24 6 0 10 -9 10 -20 0 -11 7
-23 15 -26 8 -4 15 -15 15 -25 0 -10 5 -19 10 -19 6 0 10 -7 10 -15 0 -8 7
-15 15 -15 8 0 15 -9 15 -20 0 -12 11 -32 25 -46 14 -14 25 -30 25 -37 0 -7 9
-19 20 -27 11 -8 20 -20 20 -27 0 -7 5 -13 11 -13 14 0 39 -25 39 -39 0 -6 5
-11 11 -11 14 0 39 -25 39 -39 0 -16 -17 -13 -24 4 -4 10 -20 15 -51 15 -25 0
-45 5 -45 10 0 6 -15 10 -34 10 -21 0 -36 6 -40 15 -3 9 -19 15 -41 15 -19 0
-35 5 -35 10 0 6 -16 10 -35 10 -19 0 -35 5 -35 10 0 6 -15 10 -34 10 -21 0
-36 6 -40 15 -3 9 -19 15 -41 15 -19 0 -35 5 -35 10 0 6 -16 10 -35 10 -24 0
-35 5 -35 15 0 10 -10 15 -30 15 -30 0 -30 0 -30 -58 0 -115 12 -212 26 -212
9 0 14 -12 14 -35 0 -19 5 -35 10 -35 6 0 10 -15 10 -34 0 -21 6 -36 15 -40 8
-3 15 -15 15 -26 0 -11 5 -20 10 -20 6 0 10 -10 10 -21 0 -12 11 -32 25 -45
14 -13 25 -29 25 -36 1 -18 25 -48 39 -48 6 0 11 -9 11 -21 0 -22 22 -49 39
-49 6 0 11 -5 11 -10 0 -20 99 -110 120 -110 11 0 20 -7 20 -15 0 -8 6 -15 13
-15 7 0 21 -11 31 -25 10 -14 27 -25 37 -25 11 0 19 -4 19 -10 0 -5 11 -10 25
-10 16 0 25 -6 25 -15 0 -11 -12 -15 -50 -15 -27 0 -50 -4 -50 -10 0 -6 -27
-10 -60 -10 -33 0 -60 -4 -60 -10 0 -5 -27 -12 -60 -16 -33 -4 -60 -11 -60
-15 0 -5 -27 -9 -60 -9 -33 0 -60 -4 -60 -10 0 -5 -20 -10 -45 -10 l-45 0 0
-37 c0 -56 11 -113 22 -113 17 0 38 -28 38 -49 0 -12 6 -21 15 -21 8 0 15 -5
15 -10 0 -13 97 -110 110 -110 6 0 10 -5 10 -11 0 -13 25 -39 38 -39 6 0 12
-7 16 -15 3 -8 12 -15 21 -15 8 0 15 -4 15 -10 0 -5 9 -10 20 -10 12 0 31 -11
44 -25 15 -16 34 -25 55 -25 17 0 31 -4 31 -10 0 -5 11 -10 25 -10 16 0 25 -6
25 -15 0 -10 11 -15 35 -15 19 0 35 -4 35 -10 0 -5 -14 -10 -30 -10 -18 0 -33
-6 -36 -15 -4 -8 -17 -15 -30 -15 -13 0 -24 -4 -24 -10 0 -5 -9 -10 -20 -10
-11 0 -23 -7 -26 -15 -4 -8 -17 -15 -30 -15 -13 0 -24 -4 -24 -10 0 -5 -6 -10
-13 -10 -21 0 -77 -30 -77 -41 0 -5 -11 -9 -25 -9 -14 0 -25 -4 -25 -10 0 -5
-11 -10 -25 -10 -16 0 -25 -6 -25 -15 0 -9 -9 -15 -25 -15 -14 0 -25 -4 -25
-9 0 -5 -10 -11 -23 -13 -23 -3 -39 -48 -17 -48 12 0 40 -24 40 -35 0 -10 27
-35 38 -35 6 0 12 -7 16 -15 3 -8 12 -15 21 -15 9 0 27 -11 41 -25 14 -14 31
-25 39 -25 8 0 15 -4 15 -10 0 -5 11 -10 25 -10 14 0 25 -4 25 -10 0 -5 16
-10 35 -10 24 0 35 -5 35 -15 0 -10 11 -15 35 -15 19 0 35 -4 35 -10 0 -5 22
-10 49 -10 34 0 51 -4 55 -15 4 -12 30 -15 146 -15 87 0 140 -4 140 -10 0 -5
7 -10 15 -10 8 0 15 -5 15 -11 0 -11 25 -39 35 -39 10 0 35 -28 35 -39 0 -6 5
-11 11 -11 14 0 39 -25 39 -39 0 -6 4 -11 8 -11 5 0 29 -20 54 -45 25 -25 55
-45 67 -45 12 0 21 -6 21 -13 0 -7 9 -19 20 -27 11 -8 20 -20 20 -27 0 -7 5
-13 11 -13 14 0 39 -25 39 -39 0 -6 6 -11 13 -11 7 0 19 -9 27 -20 8 -11 20
-20 27 -20 7 0 13 -5 13 -10 0 -14 147 -160 160 -160 6 0 10 -7 10 -15 0 -8 9
-15 20 -15 11 0 20 -4 20 -10 0 -5 7 -10 15 -10 8 0 15 -5 15 -11 0 -14 25
-39 39 -39 6 0 11 -5 11 -11 0 -14 25 -39 39 -39 6 0 11 -5 11 -11 0 -11 25
-39 35 -39 8 0 35 -27 35 -35 0 -10 28 -35 39 -35 6 0 11 -5 11 -11 0 -11 25
-39 35 -39 10 0 35 -28 35 -39 0 -6 7 -11 15 -11 8 0 15 -4 15 -10 0 -5 9 -10
20 -10 11 0 20 -7 20 -15 0 -8 5 -15 11 -15 14 0 39 -25 39 -39 0 -6 5 -11 11
-11 14 0 39 -25 39 -39 0 -6 4 -11 10 -11 5 0 57 -47 115 -105 64 -64 113
-105 125 -105 11 0 20 -5 20 -11 0 -14 25 -39 39 -39 6 0 11 -5 11 -11 0 -14
25 -39 39 -39 6 0 11 -5 11 -10 0 -14 46 -60 60 -60 5 0 10 -7 10 -15 0 -9 9
-15 25 -15 14 0 25 -4 25 -10 0 -5 16 -10 35 -10 24 0 35 -5 35 -15 0 -9 9
-15 25 -15 14 0 25 -4 25 -10 0 -5 15 -10 34 -10 21 0 36 -6 40 -15 3 -9 19
-15 41 -15 19 0 35 -4 35 -10 0 -5 9 -10 20 -10 11 0 20 -4 20 -10 0 -5 18
-10 40 -10 29 0 40 -4 40 -15 0 -9 9 -15 25 -15 14 0 25 -4 25 -10 0 -5 16
-10 35 -10 24 0 35 -5 35 -15 0 -10 11 -15 35 -15 19 0 35 -4 35 -10 0 -5 11
-10 24 -10 13 0 26 -7 30 -15 3 -9 18 -15 36 -15 16 0 30 -4 30 -10 0 -5 11
-10 25 -10 14 0 25 -4 25 -10 0 -5 7 -10 15 -10 8 0 15 -7 15 -15 0 -8 5 -15
10 -15 6 0 10 -8 10 -17 1 -22 23 -53 39 -53 6 0 11 -10 11 -23 0 -12 11 -31
25 -41 14 -10 25 -27 25 -37 0 -11 5 -19 10 -19 6 0 10 -7 10 -15 0 -8 7 -15
15 -15 8 0 15 -8 15 -17 0 -10 11 -31 25 -47 14 -16 25 -34 25 -40 0 -7 9 -18
20 -26 11 -8 20 -20 20 -27 0 -7 7 -13 15 -13 9 0 15 -9 15 -21 0 -22 22 -49
39 -49 6 0 11 -9 11 -20 0 -12 11 -32 25 -46 14 -14 25 -31 25 -39 0 -8 5 -15
10 -15 6 0 10 -7 10 -15 0 -8 5 -15 10 -15 6 0 10 -7 10 -15 0 -9 11 -26 23
-38 30 -28 39 -63 21 -81 -8 -8 -14 -19 -14 -25 0 -6 -5 -11 -11 -11 -11 0
-39 -25 -39 -35 0 -10 -28 -35 -39 -35 -6 0 -11 -5 -11 -11 0 -14 -25 -39 -39
-39 -6 0 -11 -9 -11 -21 0 -22 -22 -49 -39 -49 -6 0 -11 -4 -11 -10 0 -12 -98
-110 -110 -110 -6 0 -10 -5 -10 -10 0 -6 -20 -30 -45 -54 -25 -25 -45 -49 -45
-55 0 -6 -5 -11 -10 -11 -17 0 -70 -56 -70 -74 0 -9 -4 -16 -10 -16 -5 0 -10
-7 -10 -15 0 -8 -5 -15 -11 -15 -14 0 -39 -25 -39 -39 0 -6 -5 -11 -10 -11
-14 0 -60 -46 -60 -60 0 -5 -5 -10 -11 -10 -14 0 -39 -25 -39 -39 0 -6 -5 -11
-11 -11 -14 0 -39 -25 -39 -39 0 -6 -4 -11 -9 -11 -16 0 -61 -53 -61 -71 0
-11 -7 -19 -15 -19 -10 0 -15 -11 -15 -35 0 -30 4 -35 28 -40 15 -4 35 -10 44
-16 10 -5 31 -9 48 -9 16 0 30 -4 30 -10 0 -6 27 -10 60 -10 47 0 60 -3 60
-15 0 -13 24 -15 155 -15 131 0 155 2 155 15 0 12 14 15 65 15 37 0 65 4 65
10 0 6 11 10 25 10 27 0 34 -17 10 -26 -8 -4 -15 -15 -15 -25 0 -10 -4 -19
-10 -19 -5 0 -10 -11 -10 -25 0 -16 -6 -25 -15 -25 -8 0 -15 -7 -15 -15 0 -8
-4 -15 -10 -15 -5 0 -10 -9 -10 -19 0 -10 -7 -21 -15 -25 -8 -3 -15 -15 -15
-26 0 -11 -4 -20 -10 -20 -5 0 -10 -7 -10 -15 0 -8 -4 -15 -9 -15 -5 0 -12
-11 -15 -25 -4 -14 -11 -25 -16 -25 -6 0 -10 -9 -10 -20 0 -11 -4 -20 -10 -20
-5 0 -10 -7 -10 -15 0 -8 -7 -15 -16 -15 -12 0 -14 -10 -12 -47 3 -41 6 -48
26 -51 12 -2 22 -8 22 -13 0 -5 16 -9 35 -9 19 0 35 -4 35 -10 0 -6 32 -10 75
-10 60 0 75 -3 75 -15 0 -22 158 -22 166 0 5 11 23 15 75 15 39 0 69 4 69 10
0 6 7 10 15 10 17 0 20 -16 5 -25 -5 -3 -10 -26 -10 -50 0 -29 -5 -45 -15 -49
-11 -4 -15 -21 -15 -61 0 -30 -4 -55 -10 -55 -6 0 -10 -28 -10 -65 0 -51 -3
-65 -15 -65 -11 0 -15 -11 -15 -41 l0 -42 152 5 c125 4 153 8 163 22 7 9 20
16 29 16 19 0 46 23 46 39 0 6 9 11 20 11 26 0 100 74 100 100 0 11 6 20 14
20 8 0 17 6 20 13 5 9 7 9 12 0 3 -7 12 -13 20 -13 8 0 14 -9 14 -21 0 -26 73
-99 100 -99 11 0 20 -5 20 -11 0 -16 27 -39 46 -39 9 0 22 -8 29 -17 11 -14
36 -18 164 -21 l151 -4 0 31 c0 21 -5 31 -15 31 -12 0 -15 13 -15 60 0 33 -4
60 -10 60 -6 0 -10 27 -10 60 0 47 -3 60 -15 60 -12 0 -15 13 -15 60 0 33 -4
60 -10 60 -5 0 -10 7 -10 15 0 17 16 20 25 5 3 -5 37 -10 76 -10 55 0 69 -3
69 -15 0 -12 16 -15 85 -15 69 0 85 3 85 15 0 12 14 15 69 15 39 0 73 5 76 10
3 6 22 10 41 10 19 0 34 4 34 9 0 5 10 11 23 13 18 2 23 10 25 41 2 28 0 37
-12 37 -10 0 -16 9 -16 25 0 14 -4 25 -10 25 -5 0 -10 9 -10 20 0 11 -7 20
-15 20 -8 0 -15 7 -15 15 0 8 -4 15 -10 15 -5 0 -10 11 -10 25 0 14 -4 25 -10
25 -5 0 -10 7 -10 15 0 9 -11 26 -25 39 -14 13 -25 33 -25 45 0 12 -6 21 -15
21 -9 0 -15 9 -15 21 0 22 -22 49 -39 49 -6 0 -11 11 -11 25 0 20 5 25 25 25
14 0 25 -4 25 -10 0 -6 28 -10 65 -10 51 0 65 -3 65 -15 0 -13 24 -15 155 -15
131 0 155 2 155 15 0 12 13 15 60 15 33 0 60 4 60 10 0 6 15 10 34 10 19 0 37
4 40 9 3 5 22 12 41 15 32 6 35 10 35 41 0 19 -5 35 -11 35 -11 0 -39 25 -39
35 0 4 -6 13 -12 20 -29 33 -38 45 -38 53 0 5 -11 15 -25 22 -14 7 -25 17 -25
22 0 13 -26 38 -39 38 -6 0 -11 5 -11 11 0 12 -50 59 -62 59 -5 0 -8 5 -8 11
0 14 -25 39 -39 39 -6 0 -11 5 -11 11 0 14 -25 39 -39 39 -6 0 -11 7 -11 15 0
8 -4 15 -10 15 -5 0 -10 9 -10 20 0 11 -7 20 -15 20 -8 0 -15 5 -15 11 0 6
-47 57 -105 115 -58 57 -105 108 -105 114 0 5 -5 10 -11 10 -14 0 -39 25 -39
39 0 6 -5 11 -11 11 -17 0 -39 27 -39 49 0 12 -5 21 -11 21 -12 0 -59 50 -59
63 0 4 -7 7 -15 7 -8 0 -15 5 -15 11 0 6 -6 17 -14 24 -14 15 -10 65 5 65 5 0
9 6 9 14 0 8 7 16 15 20 8 3 15 12 15 21 0 8 5 15 10 15 6 0 10 7 10 15 0 8 5
15 10 15 6 0 10 11 10 25 0 14 5 25 11 25 17 0 39 27 39 49 0 12 5 21 11 21
16 0 38 31 39 53 0 9 7 17 15 17 8 0 15 7 15 15 0 8 5 15 10 15 6 0 10 9 10
20 0 11 5 20 10 20 6 0 10 7 10 15 0 8 7 15 15 15 9 0 15 9 15 21 0 22 22 49
39 49 6 0 11 11 11 25 0 14 5 25 10 25 6 0 10 7 10 15 0 8 7 15 15 15 8 0 15
9 15 20 0 11 5 20 10 20 6 0 10 6 10 13 0 7 11 21 25 31 14 10 25 27 25 37 0
11 5 19 10 19 6 0 10 7 10 15 0 8 7 15 15 15 8 0 15 5 15 10 0 6 9 10 19 10
11 0 23 5 26 10 3 6 14 10 25 10 10 0 20 7 24 15 3 9 19 15 41 15 19 0 35 5
35 10 0 6 16 10 35 10 24 0 35 5 35 15 0 9 9 15 25 15 14 0 25 5 25 10 0 6 16
10 35 10 24 0 35 5 35 15 0 10 10 15 34 15 19 0 38 5 41 10 3 6 15 10 26 10
10 0 19 5 19 10 0 6 16 10 35 10 22 0 38 6 41 15 4 9 19 15 40 15 19 0 34 5
34 10 0 6 11 10 25 10 16 0 25 6 25 15 0 10 11 15 35 15 19 0 35 5 35 10 0 6
11 10 25 10 14 0 25 5 25 11 0 11 25 39 35 39 10 0 35 28 35 39 0 6 5 11 11
11 14 0 39 25 39 39 0 6 5 11 11 11 14 0 39 25 39 39 0 6 6 11 13 11 7 0 19 9
27 20 8 11 20 20 27 20 7 0 63 49 123 110 61 60 115 110 120 110 6 0 10 5 10
11 0 14 25 39 39 39 6 0 11 5 11 10 0 16 43 57 68 64 12 4 22 12 22 17 0 5 6
9 13 9 8 0 19 11 26 24 7 13 24 30 37 37 13 7 24 16 24 21 0 12 26 38 38 38 5
0 15 11 22 25 7 14 17 25 22 25 13 0 38 26 38 39 0 6 5 11 11 11 11 0 39 25
39 35 0 8 27 35 35 35 10 0 35 28 35 39 0 6 9 11 20 11 20 0 100 72 100 90 0
6 5 10 11 10 14 0 39 25 39 39 0 6 5 11 10 11 14 0 160 146 160 160 0 5 6 10
13 10 7 0 19 9 27 20 8 11 21 20 29 20 8 0 36 23 62 50 26 28 53 50 58 50 6 0
11 5 11 11 0 11 25 39 35 39 10 0 35 28 35 39 0 6 7 11 15 11 8 0 15 5 15 10
0 6 53 10 140 10 116 0 142 3 146 15 4 10 20 15 50 15 24 0 44 5 44 10 0 6 18
10 40 10 29 0 40 4 40 15 0 10 11 15 35 15 19 0 35 5 35 10 0 6 9 10 21 10 22
0 49 22 49 39 0 6 11 11 25 11 14 0 25 5 25 10 0 6 8 10 18 10 9 0 28 12 41
25 13 14 27 25 32 25 5 0 9 7 9 15 0 8 5 15 10 15 15 0 12 60 -4 76 -8 8 -24
14 -35 14 -12 0 -21 6 -21 15 0 9 -9 15 -25 15 -14 0 -25 5 -25 10 0 6 -11 10
-24 10 -13 0 -26 7 -30 15 -3 8 -15 15 -26 15 -11 0 -20 5 -20 10 0 6 -9 10
-19 10 -11 0 -23 5 -26 10 -3 6 -14 10 -25 10 -10 0 -20 7 -24 15 -3 9 -18 15
-35 15 -16 0 -33 5 -36 10 -3 6 -15 10 -26 10 -10 0 -19 7 -19 15 0 9 -9 15
-25 15 -14 0 -25 5 -25 10 0 6 16 10 35 10 24 0 35 5 35 15 0 9 9 15 25 15 14
0 25 5 25 10 0 6 11 10 25 10 14 0 25 5 25 10 0 6 9 10 20 10 11 0 23 7 26 15
4 8 14 15 23 15 20 1 51 24 51 39 0 6 9 11 21 11 22 0 49 22 49 39 0 6 4 11
10 11 13 0 110 97 110 110 0 5 7 10 15 10 9 0 15 9 15 23 0 12 11 31 25 41 14
10 25 27 25 37 0 11 5 19 10 19 6 0 10 23 10 50 l0 50 -60 0 c-33 0 -60 4 -60
10 0 6 -22 10 -50 10 -27 0 -50 4 -50 9 0 4 -27 11 -60 15 -33 4 -60 11 -60
16 0 6 -27 10 -60 10 -33 0 -60 4 -60 10 0 6 -22 10 -50 10 -38 0 -50 4 -50
15 0 9 9 15 25 15 14 0 25 5 25 10 0 6 8 10 19 10 10 0 27 11 37 25 10 14 24
25 31 25 7 0 13 7 13 15 0 8 8 15 18 15 20 0 122 92 122 109 0 6 7 11 15 11 9
0 15 9 15 21 0 22 22 49 39 49 6 0 11 7 11 15 0 8 5 15 10 15 6 0 10 9 10 19
0 10 7 21 15 25 8 3 15 15 15 26 0 11 5 20 10 20 6 0 10 11 10 25 0 14 5 25
10 25 6 0 10 11 10 25 0 16 6 25 15 25 9 0 15 9 15 25 0 14 5 25 10 25 6 0 10
16 10 35 0 24 5 35 15 35 11 0 15 12 15 50 0 28 5 50 10 50 6 0 10 35 10 85
l0 85 -35 0 c-24 0 -35 -5 -35 -15 0 -10 -11 -15 -35 -15 -19 0 -35 -4 -35
-10 0 -5 -18 -10 -40 -10 -29 0 -40 -4 -40 -15 0 -10 -11 -15 -35 -15 -19 0
-35 -4 -35 -10 0 -5 -16 -10 -35 -10 -19 0 -35 -4 -35 -10 0 -5 -18 -10 -39
-10 -22 0 -46 -7 -55 -15 -8 -8 -28 -15 -45 -15 -17 0 -31 -4 -31 -10 0 -5
-16 -10 -35 -10 -21 0 -37 -6 -43 -16 -5 -9 -15 -15 -21 -13 -15 5 20 49 38
49 6 0 11 5 11 11 0 6 16 25 35 43 19 19 35 39 35 46 0 7 16 27 35 46 19 18
35 42 35 53 0 12 7 21 15 21 8 0 15 7 15 15 0 8 5 15 10 15 6 0 10 9 10 19 0
10 7 21 15 25 8 3 15 15 15 26 0 11 5 20 10 20 6 0 10 11 10 25 0 14 4 25 10
25 5 0 12 16 16 35 3 19 10 35 15 35 5 0 9 18 9 40 0 22 5 40 10 40 6 0 10 15
10 34 0 21 6 36 15 40 11 4 15 22 15 76 0 40 4 70 10 70 6 0 10 75 10 205 l0
205 -29 0 c-18 0 -35 -9 -47 -25 -10 -14 -27 -25 -38 -25 -10 0 -29 -11 -42
-25 -13 -14 -30 -25 -39 -25 -19 0 -45 -23 -45 -39 0 -6 -11 -11 -25 -11 -14
0 -25 -4 -25 -10 0 -5 -8 -10 -19 -10 -10 0 -27 -11 -37 -25 -10 -14 -27 -25
-37 -25 -20 0 -47 -22 -47 -39 0 -6 -11 -11 -25 -11 -14 0 -25 -4 -25 -10 0
-5 -7 -10 -15 -10 -8 0 -15 -7 -15 -15 0 -9 -9 -15 -21 -15 -22 0 -49 -22 -49
-39 0 -6 -11 -11 -25 -11 -14 0 -25 -4 -25 -10 0 -5 -9 -10 -19 -10 -11 0 -28
-11 -39 -25 -11 -14 -28 -25 -37 -25 -10 0 -28 -11 -41 -25 -27 -29 -34 -31
-34 -10 0 8 5 15 10 15 6 0 10 11 10 25 0 14 5 25 11 25 17 0 39 27 39 49 0
12 6 21 15 21 10 0 15 11 15 35 0 19 5 35 10 35 6 0 10 11 10 24 0 13 7 26 15
30 9 3 15 18 15 36 0 16 5 30 10 30 6 0 10 18 10 40 0 22 5 40 10 40 6 0 10
27 10 60 0 47 3 60 15 60 12 0 15 19 15 110 0 67 4 110 10 110 6 0 10 33 10
79 0 44 -4 83 -10 86 -6 3 -10 52 -10 111 0 86 -3 104 -15 104 -11 0 -15 12
-15 45 l0 45 -45 0 c-38 0 -51 -5 -75 -30 -16 -16 -34 -30 -40 -30 -5 0 -10
-7 -10 -15 0 -8 -9 -15 -20 -15 -11 0 -20 -4 -20 -10 0 -5 -5 -10 -11 -10 -14
0 -39 -25 -39 -39 0 -6 -7 -11 -15 -11 -8 0 -15 -4 -15 -10 0 -5 -7 -10 -16
-10 -18 0 -74 -53 -74 -70 0 -5 -7 -10 -15 -10 -8 0 -15 -4 -15 -10 0 -5 -9
-10 -19 -10 -11 0 -28 -11 -39 -25 -11 -14 -23 -25 -27 -25 -8 0 -35 -26 -35
-35 0 -14 -30 -35 -49 -35 -12 0 -21 -6 -21 -15 0 -8 -5 -15 -11 -15 -6 0 -26
-16 -45 -35 -18 -19 -40 -35 -49 -35 -8 0 -15 -4 -15 -10 0 -5 -7 -10 -15 -10
-8 0 -15 -5 -15 -11 0 -14 -25 -39 -39 -39 -6 0 -11 -7 -11 -15 0 -8 -8 -15
-19 -15 -10 0 -39 -20 -64 -45 -26 -25 -52 -45 -60 -45 -8 0 -23 -11 -33 -25
-10 -14 -24 -25 -31 -25 -7 0 -13 -5 -13 -11 0 -11 -25 -39 -35 -39 -4 0 -13
-6 -20 -12 -31 -28 -44 -38 -50 -38 -10 0 -35 -28 -35 -39 0 -6 -7 -11 -15
-11 -8 0 -15 -4 -15 -10 0 -5 -7 -10 -16 -10 -9 0 -38 -22 -65 -50 -27 -27
-56 -50 -64 -50 -19 0 -45 -23 -45 -39 0 -6 -5 -11 -11 -11 -11 0 -39 -25 -39
-35 0 -14 -30 -35 -49 -35 -12 0 -21 -6 -21 -15 0 -8 -6 -15 -13 -15 -7 0 -19
-9 -27 -20 -8 -11 -20 -20 -27 -20 -7 0 -13 -7 -13 -15 0 -8 -9 -15 -20 -15
-11 0 -20 -4 -20 -10 0 -5 -7 -10 -15 -10 -8 0 -15 -5 -15 -11 0 -14 -25 -39
-39 -39 -6 0 -11 -7 -11 -15 0 -8 -8 -15 -19 -15 -10 0 -39 -20 -64 -45 -26
-25 -52 -45 -60 -45 -8 0 -23 -11 -33 -25 -10 -14 -24 -25 -31 -25 -7 0 -13
-5 -13 -11 0 -14 -25 -39 -39 -39 -6 0 -11 -4 -11 -10 0 -5 -7 -10 -15 -10 -9
0 -18 -7 -21 -15 -4 -8 -10 -15 -16 -15 -13 0 -38 -26 -38 -39 0 -6 -7 -11
-15 -11 -9 0 -15 -9 -15 -25 0 -14 -4 -25 -10 -25 -5 0 -10 -15 -10 -34 0 -21
-6 -36 -15 -40 -8 -3 -15 -15 -15 -26 0 -11 -4 -20 -10 -20 -5 0 -10 -16 -10
-35 0 -19 -4 -35 -10 -35 -5 0 -10 -11 -10 -25 0 -16 -6 -25 -15 -25 -10 0
-15 -11 -15 -35 0 -19 -4 -35 -10 -35 -5 0 -10 -11 -10 -24 0 -13 -7 -26 -15
-30 -9 -3 -15 -18 -15 -36 0 -16 -4 -30 -10 -30 -5 0 -10 -11 -10 -24 0 -13
-7 -26 -15 -30 -9 -3 -15 -18 -15 -35 0 -16 -4 -33 -10 -36 -5 -3 -10 -15 -10
-26 0 -10 -4 -19 -10 -19 -5 0 -10 -18 -10 -40 0 -29 -4 -40 -15 -40 -9 0 -15
-9 -15 -25 0 -14 -4 -25 -10 -25 -5 0 -10 -16 -10 -35 0 -24 -5 -35 -15 -35
-9 0 -15 -9 -15 -25 0 -14 -4 -25 -10 -25 -5 0 -10 -16 -10 -35 0 -24 -5 -35
-15 -35 -9 0 -15 -9 -15 -25 0 -14 -4 -25 -10 -25 -5 0 -10 -16 -10 -35 0 -19
-4 -35 -10 -35 -5 0 -10 -11 -10 -25 0 -16 -6 -25 -15 -25 -12 0 -15 -13 -15
-60 0 -47 3 -60 15 -60 10 0 15 -11 15 -35 0 -19 5 -35 10 -35 6 0 10 -11 10
-25 0 -14 5 -25 10 -25 6 0 10 -16 10 -35 0 -24 5 -35 15 -35 11 0 15 -11 15
-40 0 -22 5 -40 10 -40 6 0 10 -11 10 -25 0 -16 6 -25 15 -25 10 0 15 -11 15
-35 0 -19 5 -35 10 -35 6 0 10 -16 10 -35 0 -24 5 -35 15 -35 11 0 15 -11 15
-40 0 -22 -5 -40 -10 -40 -14 0 -160 -146 -160 -160 0 -5 -5 -10 -11 -10 -14
0 -39 -25 -39 -39 0 -6 -5 -11 -11 -11 -6 0 -27 -17 -46 -37 -31 -34 -35 -36
-44 -20 -6 10 -22 17 -39 17 -17 0 -30 5 -30 10 0 6 -18 10 -39 10 -22 0 -41
4 -43 9 -1 4 -13 11 -25 15 -15 5 -28 0 -47 -19 -14 -14 -30 -25 -36 -25 -5 0
-10 -5 -10 -11 0 -14 -25 -39 -39 -39 -6 0 -11 -4 -11 -10 0 -12 -98 -110
-110 -110 -6 0 -10 -5 -10 -11 0 -6 -6 -17 -14 -25 -8 -8 -19 -14 -25 -14 -6
0 -11 -4 -11 -10 0 -13 -97 -110 -110 -110 -5 0 -10 -7 -10 -15 0 -19 -16 -19
-24 0 -3 8 -15 15 -26 15 -11 0 -20 5 -20 10 0 6 -7 10 -15 10 -8 0 -15 4 -15
9 0 5 -11 12 -25 15 -14 4 -25 11 -25 16 0 6 -9 10 -20 10 -11 0 -20 5 -20 10
0 6 -7 10 -15 10 -8 0 -15 7 -15 15 0 9 -9 15 -25 15 -14 0 -25 5 -25 10 0 6
-11 10 -25 10 -14 0 -25 5 -25 11 0 25 -30 39 -84 39 -31 0 -56 -4 -56 -10 0
-5 -8 -10 -19 -10 -10 0 -27 -11 -37 -25 -10 -14 -29 -25 -41 -25 -14 0 -23
-6 -23 -15 0 -9 -9 -15 -25 -15 -14 0 -25 -4 -25 -8 0 -5 -16 -17 -35 -28 -19
-10 -35 -22 -35 -26 0 -5 -7 -8 -15 -8 -8 0 -15 -4 -15 -10 0 -5 -9 -10 -20
-10 -10 0 -23 -7 -28 -16 -8 -14 -20 -5 -76 50 -36 36 -66 71 -66 76 0 6 -4
10 -10 10 -5 0 -70 61 -144 135 -133 132 -169 156 -182 120 -4 -10 -20 -15
-45 -15 -21 0 -39 -4 -39 -10 0 -5 -13 -10 -30 -10 -17 0 -33 -7 -39 -17 -9
-16 -13 -14 -44 20 -19 20 -40 37 -46 37 -6 0 -11 5 -11 11 0 14 -25 39 -39
39 -6 0 -11 5 -11 11 0 14 -25 39 -39 39 -6 0 -11 5 -11 10 0 6 -22 33 -50 60
-27 28 -54 50 -60 50 -5 0 -10 22 -10 50 0 38 4 50 15 50 9 0 15 9 15 25 0 14
5 25 10 25 6 0 10 15 10 34 0 21 6 36 15 40 9 3 15 19 15 41 0 19 5 35 10 35
6 0 10 9 10 21 0 11 7 27 15 35 8 9 15 26 15 40 0 13 5 24 10 24 6 0 10 16 10
35 0 19 5 35 10 35 6 0 10 11 10 24 0 13 7 26 15 30 21 8 21 104 0 112 -8 4
-15 17 -15 30 0 13 -4 24 -10 24 -5 0 -10 16 -10 35 0 19 -4 35 -10 35 -5 0
-10 9 -10 20 0 11 -7 23 -15 26 -9 4 -15 19 -15 40 0 19 -4 34 -10 34 -5 0
-10 11 -10 25 0 16 -6 25 -15 25 -9 0 -15 9 -15 25 0 14 -4 25 -10 25 -5 0
-10 16 -10 35 0 24 -5 35 -15 35 -9 0 -15 9 -15 25 0 14 -4 25 -10 25 -5 0
-10 16 -10 35 0 19 -4 35 -10 35 -5 0 -10 11 -10 25 0 16 -6 25 -15 25 -11 0
-15 11 -15 40 0 22 -4 40 -10 40 -5 0 -10 9 -10 20 0 11 -7 23 -15 26 -9 4
-15 19 -15 40 0 19 -4 34 -10 34 -5 0 -10 11 -10 25 0 16 -6 25 -15 25 -10 0
-15 11 -15 35 0 19 -4 35 -10 35 -5 0 -10 11 -10 25 0 14 -4 25 -9 25 -5 0
-12 16 -15 35 -4 19 -11 35 -16 35 -6 0 -10 11 -10 25 0 14 -4 25 -10 25 -5 0
-10 14 -10 30 0 18 -6 33 -15 36 -8 4 -15 10 -15 16 0 12 -26 38 -38 38 -6 0
-12 7 -16 15 -3 8 -12 15 -21 15 -18 0 -65 43 -65 60 0 5 -7 10 -15 10 -8 0
-15 5 -15 10 0 6 -11 10 -25 10 -14 0 -25 5 -25 11 0 14 -25 39 -39 39 -6 0
-11 5 -11 11 0 16 -26 39 -45 39 -19 0 -45 23 -45 39 0 6 -5 11 -11 11 -6 0
-25 16 -43 35 -19 19 -39 35 -45 35 -6 0 -27 16 -45 35 -19 19 -39 35 -45 35
-6 0 -11 7 -11 15 0 9 -9 15 -21 15 -22 0 -49 22 -49 39 0 6 -4 11 -9 11 -5 0
-19 11 -32 25 -13 13 -30 25 -37 25 -7 0 -32 20 -56 45 -25 25 -53 45 -65 45
-12 0 -21 5 -21 11 0 14 -25 39 -39 39 -6 0 -11 5 -11 11 0 14 -25 39 -39 39
-6 0 -11 4 -11 9 0 5 -10 13 -22 17 -12 3 -41 26 -64 50 -23 25 -51 44 -63 44
-11 0 -21 5 -21 11 0 14 -25 39 -39 39 -6 0 -11 5 -11 11 0 16 -26 39 -45 39
-19 0 -45 23 -45 39 0 6 -5 11 -11 11 -6 0 -25 16 -43 35 -19 19 -39 35 -45
35 -6 0 -27 16 -45 35 -19 19 -39 35 -45 35 -6 0 -11 7 -11 15 0 9 -9 15 -21
15 -22 0 -49 22 -49 39 0 6 -4 11 -9 11 -5 0 -19 11 -32 25 -13 13 -31 25 -39
25 -9 0 -22 9 -30 20 -8 11 -20 20 -27 20 -7 0 -13 5 -13 11 0 17 -27 39 -49
39 -12 0 -21 5 -21 11 0 14 -25 39 -39 39 -6 0 -11 5 -11 11 0 14 -25 39 -39
39 -6 0 -11 5 -11 10 0 6 -11 10 -25 10 -14 0 -25 5 -25 11 0 6 -16 26 -35 45
-29 28 -43 34 -79 34 -23 0 -46 -3 -49 -7z"/>
<path d="M4220 6444 c0 -105 -9 -134 -39 -134 -6 0 -11 -11 -11 -25 0 -14 -4
-25 -10 -25 -5 0 -10 -6 -10 -14 0 -8 -7 -16 -15 -20 -8 -3 -15 -12 -15 -21 0
-8 -4 -15 -10 -15 -5 0 -10 -11 -10 -25 0 -16 -6 -25 -15 -25 -13 0 -15 -57
-15 -456 l0 -457 30 -28 c16 -16 34 -29 40 -29 5 0 10 -5 10 -11 0 -14 25 -39
39 -39 6 0 11 -5 11 -11 0 -11 25 -39 35 -39 9 0 35 -27 35 -36 0 -11 34 -33
53 -34 9 0 17 -7 17 -15 0 -8 5 -15 11 -15 11 0 39 -25 39 -35 0 -10 28 -35
39 -35 6 0 11 -5 11 -11 0 -20 29 -39 60 -39 28 0 60 18 60 35 0 10 28 35 39
35 6 0 11 5 11 11 0 14 25 39 39 39 6 0 11 5 11 11 0 17 27 39 49 39 12 0 21
5 21 11 0 13 25 39 38 39 5 0 15 11 22 25 7 14 17 25 22 25 13 0 38 26 38 39
0 6 5 11 11 11 6 0 24 15 40 33 32 36 40 93 14 103 -8 4 -15 15 -15 26 0 21
-22 48 -39 48 -6 0 -11 6 -11 14 0 8 -6 17 -12 20 -10 5 -10 7 0 12 6 3 12 17
12 30 0 15 6 24 15 24 9 0 15 9 15 25 0 14 5 25 10 25 6 0 10 35 10 85 0 50
-4 85 -10 85 -5 0 -10 20 -10 45 0 31 -5 47 -15 51 -8 4 -15 10 -15 15 0 5 7
9 15 9 9 0 15 9 15 25 0 14 5 25 10 25 6 0 10 7 10 15 0 13 20 15 120 15 l120
0 0 35 c0 19 -4 35 -10 35 -5 0 -10 11 -10 25 0 14 -4 25 -10 25 -5 0 -10 9
-10 20 0 11 -7 23 -15 26 -9 4 -15 19 -15 40 0 19 -4 34 -10 34 -5 0 -10 8
-10 17 0 24 -68 83 -96 83 -13 0 -24 5 -24 10 0 6 5 10 10 10 6 0 10 11 10 25
0 14 5 25 10 25 6 0 10 16 10 35 0 25 -4 35 -15 35 -9 0 -31 16 -49 35 -19 19
-39 35 -45 35 -6 0 -11 5 -11 11 0 14 -25 39 -39 39 -6 0 -11 5 -11 11 0 6 -6
17 -14 25 -12 11 -65 14 -290 14 l-276 0 0 -106z"/>
</g>
</svg>
