<?xml version="1.0" standalone="no"?>
<!DOCTYPE svg PUBLIC "-//W3C//DTD SVG 20010904//EN"
 "http://www.w3.org/TR/2001/REC-SVG-20010904/DTD/svg10.dtd">
<svg id="divi_1"  version="1.0" xmlns="http://www.w3.org/2000/svg"
  viewBox="0 0 1120.000000 105.000000"
 preserveAspectRatio="xMidYMid meet">
<metadata>
Created by potrace 1.16, written by Peter Selinger 2001-2019
</metadata>
<g transform="translate(0.000000,105.000000) scale(0.100000,-0.100000)"
 fill= "#fcd165" stroke="none">
<path d="M5558 944 c-15 -8 -40 -35 -55 -61 -40 -69 -37 -120 15 -227 22 -47
44 -101 47 -119 8 -44 -14 -98 -57 -137 -45 -41 -82 -40 -108 3 -21 34 -26 82
-10 92 6 3 10 2 10 -3 0 -5 11 -14 24 -20 50 -23 91 51 50 92 -22 22 -87 21
-107 -2 -38 -42 -28 -142 18 -188 l24 -24 -30 0 c-79 0 -139 55 -139 127 0 38
5 49 45 88 24 25 51 45 60 45 8 0 15 5 15 10 0 13 -61 13 -94 0 -19 -7 -26 -6
-26 3 0 24 40 76 72 94 l33 18 -27 3 c-46 5 -113 -31 -145 -79 -24 -37 -28
-52 -28 -118 0 -64 4 -83 27 -121 l26 -46 -47 -17 c-27 -9 -60 -26 -74 -37
-31 -25 -67 -96 -67 -134 0 -29 38 -106 52 -106 11 0 10 4 -3 34 -12 26 -5 76
11 76 5 0 12 -9 15 -20 9 -30 54 -80 71 -80 13 0 13 3 0 22 -9 12 -16 39 -16
59 0 70 73 117 208 132 38 5 43 3 37 -11 -27 -68 -2 -131 59 -152 73 -24 148
47 100 94 -9 10 -28 16 -43 14 -20 -2 -27 -9 -29 -31 -4 -33 -17 -35 -37 -4
-25 38 -10 83 39 116 52 36 68 55 100 114 l25 48 21 -40 c28 -55 74 -106 110
-121 40 -17 59 -79 35 -116 -20 -31 -35 -31 -35 1 0 18 -7 26 -25 31 -35 9
-53 -1 -61 -32 -9 -35 5 -56 48 -72 77 -30 155 45 130 125 -6 20 -10 38 -9 39
1 2 36 -3 78 -11 85 -14 130 -34 153 -67 20 -29 20 -87 0 -116 -8 -12 -11 -22
-6 -22 18 0 60 40 72 70 14 33 25 38 34 14 9 -25 7 -47 -8 -76 -12 -22 -12
-26 -1 -21 19 7 55 83 55 114 -1 69 -71 147 -153 170 l-36 10 27 51 c22 42 27
66 27 123 0 62 -4 77 -28 114 -32 48 -99 84 -145 79 l-27 -3 33 -18 c32 -18
72 -70 72 -94 0 -9 -7 -10 -26 -3 -33 13 -94 13 -94 0 0 -5 6 -10 14 -10 7 0
33 -17 56 -38 37 -33 43 -44 47 -87 4 -41 1 -55 -18 -79 -26 -33 -75 -56 -118
-56 l-30 0 24 24 c46 46 56 146 18 188 -20 23 -85 24 -107 2 -42 -41 5 -122
53 -92 12 7 21 16 21 21 0 4 5 5 10 2 25 -16 -2 -106 -35 -119 -43 -16 -94 14
-125 74 -29 58 -25 90 26 190 35 69 46 103 47 143 2 65 -23 120 -72 153 -41
28 -55 29 -93 8z m105 -48 c55 -51 54 -143 -4 -241 -41 -71 -59 -92 -67 -80
-80 111 -109 191 -92 254 22 81 109 117 163 67z"/>
<path d="M4754 479 l-82 -81 80 -77 c43 -42 82 -77 86 -79 4 -1 43 34 87 78
l80 80 -80 80 c-44 44 -82 80 -85 80 -3 0 -42 -37 -86 -81z"/>
<path d="M6275 480 l-80 -80 80 -80 c44 -44 83 -79 87 -78 4 2 43 37 86 79
l80 77 -82 81 c-45 44 -84 81 -86 81 -3 0 -41 -36 -85 -80z"/>
<path d="M4465 450 l-49 -50 49 -50 c27 -27 53 -50 58 -50 5 0 31 21 57 47
l50 48 -52 52 c-29 29 -55 53 -58 53 -3 0 -28 -22 -55 -50z"/>
<path d="M6622 447 l-52 -52 50 -48 c26 -26 52 -47 57 -47 5 0 31 23 58 50
l49 50 -49 50 c-27 28 -52 50 -55 50 -3 0 -29 -24 -58 -53z"/>
<path d="M2515 444 c-940 -19 -1784 -37 -1875 -41 -174 -8 -198 -7 1615 -42
325 -7 904 -18 1287 -26 l698 -14 65 36 c36 20 65 39 65 43 0 6 -134 81 -141
79 -2 -1 -773 -17 -1714 -35z"/>
<path d="M6894 440 c-35 -19 -64 -37 -64 -40 0 -4 29 -23 65 -42 l65 -37 1207
24 c665 13 1512 30 1883 37 877 17 811 20 -1265 58 -902 16 -1682 31 -1734 33
-90 2 -96 1 -157 -33z"/>
</g>
</svg>
