<svg width="376" height="404" viewBox="0 0 376 404" fill="none" xmlns="http://www.w3.org/2000/svg">
<path d="M3 288.553L230.119 278.393L292.922 289.146L64.2773 302.046L3 288.553Z" fill="#AB8D42"/>
<path d="M59.481 199.679L288.105 188.394L373.522 204.57L152.526 216.661L59.481 199.679Z" fill="#AB8D42"/>
<path d="M15.361 225.989L370.393 206.217L357.126 239.534L356.967 239.934L357.044 240.357L362.736 271.664L5.61062 286.976L21.8354 257.309L22.1046 256.816L21.9847 256.268L15.361 225.989Z" fill="#FCD165" stroke="#D1AE55" stroke-width="3"/>
<path d="M62.9157 143.651L366.696 126.628L355.451 155.867L355.232 156.435L355.471 156.994L366.537 182.902L62.9002 198.167L70.6134 173.392L70.7422 172.978L70.6305 172.559L62.9157 143.651Z" fill="#FCD165" stroke="#D1AE55" stroke-width="3"/>
<path d="M44.8944 304.753L295.675 290.234L283.78 314.938L283.559 315.398L283.664 315.897L289.803 345.177L39.1867 357.462L51.3304 334.453L51.5903 333.961L51.4659 333.418L44.8944 304.753Z" fill="#FCD165" stroke="#D1AE55" stroke-width="3"/>
<path d="M166 402.089L140.5 363.338L187 361.089L166 402.089Z" fill="#FCD165"/>
<path d="M188 112L169.813 78.25H206.187L188 112Z" fill="#FCD165"/>
<path d="M186.929 98.2131C185.926 98.2131 185.059 98.0331 184.33 97.6733C183.601 97.3134 183.04 96.8258 182.647 96.2102C182.258 95.59 182.064 94.8987 182.064 94.1364C182.064 93.5682 182.178 93.0639 182.405 92.6236C182.632 92.1832 182.95 91.7784 183.357 91.4091C183.764 91.035 184.238 90.6634 184.777 90.294L187.597 88.4403C187.962 88.2083 188.229 87.9645 188.4 87.7088C188.57 87.4484 188.655 87.1667 188.655 86.8636C188.655 86.5748 188.539 86.3073 188.307 86.0611C188.075 85.8149 187.746 85.6941 187.32 85.6989C187.036 85.6989 186.79 85.7628 186.581 85.8906C186.373 86.0137 186.21 86.1771 186.091 86.3807C185.978 86.5795 185.921 86.8021 185.921 87.0483C185.921 87.3513 186.006 87.6591 186.176 87.9716C186.347 88.2841 186.574 88.6155 186.858 88.9659C187.142 89.3116 187.453 89.6856 187.789 90.0881L194.685 98H191.532L185.779 91.5938C185.4 91.1629 185.021 90.7131 184.642 90.2443C184.268 89.7708 183.956 89.2689 183.705 88.7386C183.454 88.2036 183.328 87.6236 183.328 86.9986C183.328 86.2931 183.492 85.6586 183.819 85.0952C184.15 84.5317 184.614 84.0866 185.211 83.7599C185.807 83.4285 186.503 83.2628 187.299 83.2628C188.075 83.2628 188.745 83.4214 189.309 83.7386C189.877 84.0511 190.312 84.4678 190.615 84.9886C190.923 85.5047 191.077 86.0729 191.077 86.6932C191.077 87.3797 190.907 88.0024 190.566 88.5611C190.23 89.1151 189.756 89.6122 189.145 90.0526L186.176 92.1903C185.774 92.4839 185.476 92.7846 185.282 93.0923C185.092 93.3954 184.998 93.6866 184.998 93.9659C184.998 94.3116 185.083 94.6217 185.253 94.8963C185.424 95.1709 185.665 95.3887 185.978 95.5497C186.29 95.706 186.657 95.7841 187.078 95.7841C187.59 95.7841 188.094 95.6681 188.591 95.4361C189.093 95.1993 189.548 94.8655 189.955 94.4347C190.367 93.9991 190.696 93.483 190.942 92.8864C191.188 92.2898 191.311 91.6293 191.311 90.9048H193.819C193.819 91.795 193.721 92.5975 193.527 93.3125C193.333 94.0227 193.063 94.643 192.718 95.1733C192.372 95.6989 191.977 96.1297 191.532 96.4659C191.39 96.5559 191.252 96.6411 191.12 96.7216C190.987 96.8021 190.85 96.8873 190.708 96.9773C190.168 97.4129 189.564 97.7277 188.897 97.9219C188.234 98.116 187.578 98.2131 186.929 98.2131Z" fill="black"/>
<path d="M133.501 177.497L132.672 159.035L126.798 159.299L126.649 155.977L142.488 155.266L142.637 158.588L136.448 158.866L137.277 177.327L133.501 177.497ZM146.088 176.932L145.11 155.149L159.306 154.512L159.451 157.728L149.101 158.193L149.352 163.787L157.848 163.406L157.994 166.658L149.498 167.039L149.79 173.542L160.035 173.083L160.179 176.299L146.088 176.932ZM180.948 175.367L179.97 153.584L187.383 153.251C189.084 153.175 190.485 153.404 191.583 153.939C192.705 154.472 193.543 155.205 194.099 156.138C194.678 157.07 194.994 158.13 195.048 159.319C195.086 160.181 194.971 161.004 194.703 161.787C194.457 162.545 194.044 163.229 193.464 163.839C192.906 164.425 192.18 164.901 191.286 165.268C190.415 165.635 189.361 165.845 188.126 165.901L184.559 166.061L184.969 175.187L180.948 175.367ZM184.412 162.774L187.699 162.627C188.444 162.593 189.068 162.437 189.569 162.157C190.071 161.878 190.44 161.511 190.676 161.056C190.913 160.602 191.018 160.084 190.992 159.501C190.966 158.918 190.814 158.411 190.538 157.98C190.262 157.548 189.861 157.216 189.337 156.982C188.836 156.748 188.213 156.648 187.467 156.681L184.145 156.83L184.412 162.774ZM199.2 174.548L199.057 171.366L203.323 171.175L202.63 155.755L198.61 155.936L198.467 152.754L210.495 152.214L210.637 155.396L206.372 155.587L207.064 171.007L211.504 170.807L211.647 173.989L199.2 174.548ZM216.018 173.793L215.04 152.01L229.236 151.373L229.38 154.59L219.031 155.054L219.282 160.648L227.778 160.267L227.924 163.519L219.428 163.9L219.72 170.404L229.964 169.944L230.109 173.161L216.018 173.793ZM233.29 173.018L232.313 151.235L239.201 150.925C240.996 150.845 242.464 151.048 243.607 151.533C244.773 151.995 245.645 152.703 246.225 153.658C246.804 154.59 247.123 155.697 247.18 156.979C247.216 157.771 247.076 158.572 246.762 159.38C246.472 160.187 246.037 160.919 245.46 161.576C244.882 162.232 244.181 162.742 243.356 163.106L248.465 172.337L244.304 172.523L239.492 163.665L236.87 163.783L237.276 172.839L233.29 173.018ZM236.722 160.496L239.904 160.353C241.023 160.303 241.851 160.009 242.387 159.471C242.922 158.91 243.17 158.175 243.129 157.266C243.103 156.683 242.952 156.176 242.675 155.745C242.421 155.289 242.032 154.933 241.506 154.676C241.004 154.418 240.38 154.306 239.634 154.339L236.452 154.482L236.722 160.496ZM250.668 172.238L249.69 150.455L255.319 150.202C256.602 150.144 257.679 150.213 258.552 150.407C259.448 150.601 260.209 150.905 260.835 151.321C261.484 151.735 262.068 152.258 262.587 152.889C263.106 153.52 263.547 154.247 263.911 155.072C264.298 155.872 264.606 156.746 264.835 157.693C265.064 158.64 265.205 159.685 265.256 160.827C265.284 162.484 265.129 163.986 264.792 165.332C264.478 166.655 263.946 167.8 263.195 168.768C262.467 169.734 261.498 170.502 260.285 171.07C259.072 171.615 257.603 171.926 255.878 172.004L250.668 172.238ZM254.376 168.988L255.635 168.932C257.126 168.865 258.301 168.497 259.159 167.828C260.038 167.134 260.651 166.207 260.996 165.047C261.341 163.887 261.468 162.55 261.376 161.036C261.304 159.428 261.067 158.037 260.664 156.864C260.284 155.69 259.66 154.795 258.791 154.18C257.923 153.565 256.766 153.29 255.321 153.355L253.678 153.429L254.376 168.988ZM279.286 165.873L270.755 166.256L271.187 163.399L278.495 163.071L279.286 165.873ZM274.767 156.511L271.017 171.324L267.101 171.5L273.495 149.246L275.383 149.161L283.745 170.753L279.759 170.932L274.767 156.511ZM292.643 170.739C291.198 170.804 289.825 170.655 288.524 170.293C287.245 169.907 286.166 169.29 285.287 168.442L287.065 165.104L287.192 164.818L287.514 164.978C287.568 165.139 287.634 165.312 287.713 165.495C287.814 165.677 288.011 165.89 288.302 166.134C288.905 166.551 289.562 166.883 290.274 167.132C291.008 167.356 291.795 167.46 292.635 167.446C293.171 167.422 293.658 167.342 294.096 167.205C294.557 167.068 294.945 166.875 295.261 166.628C295.577 166.38 295.82 166.077 295.991 165.719C296.161 165.338 296.235 164.914 296.214 164.448C296.202 164.168 296.155 163.901 296.073 163.648C295.992 163.395 295.853 163.156 295.656 162.931C295.481 162.682 295.225 162.448 294.889 162.23C294.551 161.988 294.131 161.738 293.629 161.481C293.126 161.199 292.494 160.913 291.733 160.62C290.212 160.034 288.993 159.423 288.077 158.787C287.185 158.149 286.534 157.455 286.127 156.702C285.719 155.95 285.494 155.084 285.45 154.105C285.402 153.033 285.65 152.064 286.195 151.199C286.764 150.332 287.561 149.631 288.588 149.094C289.615 148.558 290.805 148.259 292.157 148.198C293.066 148.157 293.921 148.224 294.723 148.398C295.525 148.573 296.274 148.854 296.968 149.243C297.662 149.609 298.303 150.095 298.891 150.699L296.702 153.46L296.503 153.714L296.214 153.517C296.183 153.331 296.128 153.158 296.051 152.998C295.996 152.814 295.834 152.588 295.565 152.32C295.103 151.92 294.613 151.662 294.094 151.545C293.598 151.427 293.012 151.383 292.336 151.413C291.847 151.435 291.418 151.513 291.05 151.646C290.682 151.78 290.363 151.957 290.093 152.18C289.846 152.401 289.647 152.655 289.497 152.942C289.368 153.205 289.31 153.476 289.323 153.756C289.336 154.036 289.383 154.302 289.464 154.555C289.544 154.785 289.671 155.013 289.845 155.239C290.042 155.464 290.309 155.697 290.647 155.939C291.007 156.156 291.462 156.393 292.01 156.648C292.559 156.904 293.238 157.189 294.046 157.503C295.164 157.966 296.108 158.426 296.875 158.882C297.642 159.315 298.248 159.79 298.691 160.307C299.157 160.8 299.497 161.357 299.712 161.978C299.926 162.576 300.05 163.259 300.084 164.029C300.132 165.078 299.909 166.104 299.417 167.107C298.925 168.11 298.122 168.952 297.008 169.632C295.893 170.29 294.438 170.658 292.643 170.739Z" fill="black"/>
<path d="M78.526 157.785L84.5599 157.514L92.3472 172.22L91.2732 157.213L96.2282 156.991L96.5878 156.974L96.6076 157.414C96.4815 157.58 96.3961 157.757 96.3512 157.946C96.3329 158.134 96.3339 158.454 96.3543 158.907L97.3856 181.884L91.8711 182.131L83.9192 166.432L84.6384 182.456L79.6434 182.68L78.526 157.785ZM108.636 181.859C106.505 181.955 104.71 181.528 103.253 180.579C101.796 179.63 100.664 178.213 99.8589 176.327C99.079 174.414 98.6268 172.072 98.5025 169.301C98.3793 166.557 98.6216 164.224 99.2293 162.301C99.8625 160.351 100.862 158.838 102.229 157.762C103.595 156.687 105.344 156.101 107.475 156.005C109.58 155.911 111.361 156.338 112.818 157.287C114.276 158.236 115.407 159.653 116.212 161.539C117.016 163.398 117.48 165.7 117.603 168.444C117.728 171.214 117.474 173.588 116.842 175.565C116.21 177.542 115.211 179.068 113.844 180.144C112.476 181.193 110.74 181.765 108.636 181.859ZM108.435 177.384C109.261 177.347 109.954 177.022 110.513 176.41C111.072 175.771 111.483 174.818 111.746 173.551C112.035 172.257 112.135 170.611 112.045 168.613C111.963 166.775 111.721 165.251 111.32 164.041C110.944 162.803 110.449 161.891 109.835 161.305C109.222 160.718 108.502 160.444 107.676 160.481C106.824 160.519 106.105 160.858 105.52 161.499C104.961 162.138 104.55 163.09 104.287 164.357C104.049 165.595 103.971 167.134 104.053 168.972C104.143 170.97 104.363 172.602 104.713 173.867C105.089 175.105 105.584 176.017 106.198 176.603C106.837 177.162 107.582 177.422 108.435 177.384Z" fill="black"/>
<path d="M311.526 144.785L317.56 144.514L325.347 159.22L324.273 144.213L329.228 143.99L329.588 143.974L329.608 144.414C329.482 144.58 329.396 144.757 329.351 144.946C329.333 145.134 329.334 145.454 329.354 145.907L330.386 168.884L324.871 169.131L316.919 153.432L317.638 169.456L312.643 169.68L311.526 144.785ZM334.022 168.72L333.819 164.205L338.654 163.988L337.942 148.124L333.347 148.33L333.144 143.815L347.849 143.155L348.052 147.67L343.217 147.887L343.929 163.751L348.964 163.525L349.167 168.041L334.022 168.72Z" fill="black"/>
<path d="M55.0137 269.029C51.9268 269.168 49.5032 268.361 47.7428 266.608C46.011 264.824 45.0725 262.313 44.9272 259.077L44.11 240.87L49.145 240.644L49.5496 240.626L49.5677 241.031C49.4259 241.217 49.3298 241.417 49.2793 241.629C49.2587 241.84 49.2599 242.2 49.2827 242.71L50.0092 258.894C50.0952 260.812 50.4928 262.31 51.202 263.39C51.941 264.468 53.1647 264.968 54.873 264.892C56.6112 264.814 57.8001 264.205 58.4397 263.065C59.0779 261.895 59.3526 260.321 59.2638 258.343L58.4506 240.226L63.3956 240.004L64.2068 258.076C64.3144 260.474 63.9986 262.47 63.2593 264.065C62.5201 265.659 61.4331 266.864 59.9982 267.68C58.5932 268.493 56.9317 268.943 55.0137 269.029ZM66.6324 239.859L71.937 239.621L82.2498 257.627L81.1527 239.207L85.6932 239.004L86.0978 238.985L86.1159 239.39C85.9741 239.577 85.878 239.776 85.8275 239.989C85.8069 240.2 85.8081 240.56 85.8309 241.07L86.9952 267.008L82.275 267.22L71.5931 248.015L72.4748 267.66L67.8895 267.866L66.6324 239.859Z" fill="black"/>
<path d="M302.637 256.865L301.38 228.858L308.617 228.533C310.266 228.459 311.651 228.547 312.773 228.797C313.926 229.046 314.904 229.437 315.709 229.972C316.544 230.505 317.295 231.177 317.962 231.988C318.629 232.798 319.196 233.734 319.664 234.794C320.161 235.823 320.557 236.946 320.852 238.164C321.147 239.382 321.327 240.725 321.393 242.194C321.428 244.325 321.23 246.255 320.797 247.987C320.393 249.686 319.708 251.159 318.743 252.403C317.808 253.646 316.561 254.633 315.002 255.364C313.442 256.064 311.553 256.465 309.335 256.564L302.637 256.865ZM307.404 252.687L309.023 252.614C310.941 252.528 312.451 252.055 313.554 251.195C314.685 250.303 315.472 249.111 315.916 247.62C316.359 246.129 316.522 244.41 316.405 242.463C316.312 240.395 316.007 238.607 315.488 237.099C315 235.589 314.198 234.439 313.081 233.648C311.965 232.857 310.477 232.504 308.619 232.587L306.506 232.682L307.404 252.687ZM325.519 255.838L324.262 227.831L342.513 227.012L342.699 231.148L329.392 231.745L329.715 238.938L340.639 238.447L340.827 242.628L329.903 243.118L330.278 251.48L343.45 250.889L343.636 255.025L325.519 255.838Z" fill="black"/>
<path d="M109.89 268.92L108.214 231.577L115.886 231.233L122.555 247.33L127.692 230.643L135.424 230.296L137.103 267.698L129.97 268.019L128.861 243.323L125.064 256.407L120.629 256.606L115.855 243.907L116.963 268.602L109.89 268.92ZM142.078 267.475L141.774 260.702L149.026 260.376L147.958 236.58L141.065 236.89L140.761 230.117L162.819 229.127L163.123 235.9L155.87 236.225L156.938 260.021L164.491 259.682L164.795 266.455L142.078 267.475ZM168.274 228.882L177.324 228.475L189.005 250.534L187.394 228.023L194.827 227.69L195.366 227.666L195.396 228.325C195.207 228.574 195.079 228.84 195.011 229.123C194.984 229.405 194.985 229.885 195.016 230.564L196.563 265.03L188.291 265.401L176.363 241.852L177.442 265.888L169.95 266.224L168.274 228.882ZM213.204 265.123C209.048 265.31 205.736 264.217 203.267 261.846C200.796 259.434 199.463 256.05 199.268 251.695L198.183 227.539L206.635 227.16L207.174 227.136L207.204 227.795C207.015 228.044 206.887 228.31 206.819 228.593C206.792 228.875 206.793 229.355 206.824 230.034L207.782 251.373C207.882 253.611 208.301 255.353 209.037 256.602C209.814 257.848 211.122 258.43 212.96 258.348C214.838 258.263 216.108 257.566 216.77 256.255C217.43 254.904 217.708 253.069 217.604 250.752L216.525 226.716L224.916 226.339L225.993 250.315C226.138 253.552 225.679 256.255 224.615 258.425C223.549 260.555 222.021 262.185 220.03 263.316C218.076 264.404 215.801 265.007 213.204 265.123ZM238.94 263.127L237.579 232.798L227.929 233.231L227.614 226.218L255.546 224.964L255.86 231.977L245.611 232.437L246.972 262.767L238.94 263.127ZM273.378 262.302C270.181 262.446 267.49 261.806 265.304 260.383C263.118 258.959 261.421 256.833 260.212 254.004C259.043 251.134 258.364 247.621 258.178 243.465C257.993 239.349 258.357 235.849 259.268 232.966C260.218 230.04 261.718 227.771 263.767 226.157C265.817 224.543 268.44 223.665 271.637 223.521C274.794 223.38 277.465 224.021 279.651 225.444C281.837 226.867 283.534 228.994 284.743 231.822C285.949 234.611 286.644 238.063 286.829 242.179C287.016 246.335 286.635 249.896 285.687 252.861C284.739 255.826 283.24 258.116 281.19 259.73C279.139 261.303 276.535 262.161 273.378 262.302ZM273.076 255.589C274.315 255.534 275.354 255.046 276.194 254.128C277.032 253.169 277.649 251.74 278.044 249.841C278.477 247.899 278.627 245.43 278.492 242.433C278.368 239.676 278.005 237.39 277.403 235.575C276.84 233.718 276.098 232.35 275.177 231.471C274.257 230.591 273.177 230.179 271.938 230.235C270.66 230.292 269.581 230.801 268.704 231.761C267.866 232.72 267.249 234.149 266.854 236.049C266.497 237.906 266.38 240.214 266.504 242.971C266.639 245.968 266.969 248.416 267.494 250.314C268.058 252.171 268.8 253.539 269.721 254.418C270.679 255.256 271.798 255.647 273.076 255.589Z" fill="black"/>
<path d="M142.504 43.4545C142.504 46.6269 141.902 49.3258 140.7 51.5511C139.506 53.7765 137.878 55.4763 135.813 56.6506C133.758 57.8153 131.448 58.3977 128.881 58.3977C126.296 58.3977 123.976 57.8106 121.921 56.6364C119.866 55.4621 118.242 53.7623 117.049 51.5369C115.856 49.3116 115.259 46.6174 115.259 43.4545C115.259 40.2822 115.856 37.5833 117.049 35.358C118.242 33.1326 119.866 31.4375 121.921 30.2727C123.976 29.0985 126.296 28.5114 128.881 28.5114C131.448 28.5114 133.758 29.0985 135.813 30.2727C137.878 31.4375 139.506 33.1326 140.7 35.358C141.902 37.5833 142.504 40.2822 142.504 43.4545ZM136.268 43.4545C136.268 41.3996 135.96 39.6667 135.344 38.2557C134.738 36.8447 133.881 35.7746 132.773 35.0455C131.665 34.3163 130.368 33.9517 128.881 33.9517C127.395 33.9517 126.097 34.3163 124.989 35.0455C123.881 35.7746 123.02 36.8447 122.404 38.2557C121.798 39.6667 121.495 41.3996 121.495 43.4545C121.495 45.5095 121.798 47.2424 122.404 48.6534C123.02 50.0644 123.881 51.1345 124.989 51.8636C126.097 52.5928 127.395 52.9574 128.881 52.9574C130.368 52.9574 131.665 52.5928 132.773 51.8636C133.881 51.1345 134.738 50.0644 135.344 48.6534C135.96 47.2424 136.268 45.5095 136.268 43.4545ZM171.392 28.9091V58H166.08L153.423 39.6903H153.21V58H147.06V28.9091H152.457L165.014 47.2045H165.27V28.9091H171.392ZM176.474 58V28.9091H182.624V52.929H195.096V58H176.474ZM205.32 28.9091V58H199.169V28.9091H205.32ZM234.712 28.9091V58H229.4L216.744 39.6903H216.531V58H210.38V28.9091H215.778L228.335 47.2045H228.59V28.9091H234.712ZM239.794 58V28.9091H259.396V33.9801H245.945V40.9119H258.388V45.983H245.945V52.929H259.453V58H239.794Z" fill="#FCD165"/>
<path d="M111.559 19V4.45455H114.634V10.456H120.877V4.45455H123.945V19H120.877V12.9915H114.634V19H111.559ZM128.988 19H125.693L130.714 4.45455H134.677L139.691 19H136.396L132.752 7.77841H132.639L128.988 19ZM128.782 13.2827H136.566V15.6832H128.782V13.2827ZM149.001 8.63778C148.944 8.06487 148.7 7.61979 148.269 7.30256C147.838 6.98532 147.253 6.8267 146.515 6.8267C146.013 6.8267 145.589 6.89773 145.243 7.03977C144.898 7.17708 144.633 7.36884 144.448 7.61506C144.268 7.86127 144.178 8.14062 144.178 8.45312C144.169 8.71354 144.223 8.94081 144.341 9.13494C144.465 9.32907 144.633 9.49716 144.846 9.6392C145.059 9.77651 145.305 9.89725 145.584 10.0014C145.864 10.1009 146.162 10.1861 146.479 10.2571L147.786 10.5696C148.421 10.7116 149.003 10.901 149.533 11.1378C150.064 11.3745 150.523 11.6657 150.911 12.0114C151.299 12.357 151.6 12.7642 151.813 13.233C152.031 13.7017 152.142 14.2391 152.147 14.8452C152.142 15.7353 151.915 16.5071 151.465 17.1605C151.02 17.8092 150.376 18.3134 149.533 18.6733C148.695 19.0284 147.684 19.206 146.501 19.206C145.326 19.206 144.304 19.026 143.432 18.6662C142.566 18.3063 141.889 17.7737 141.401 17.0682C140.918 16.358 140.665 15.4796 140.641 14.4332H143.617C143.65 14.9209 143.79 15.3281 144.036 15.6548C144.287 15.9768 144.621 16.2206 145.037 16.3864C145.459 16.5473 145.935 16.6278 146.465 16.6278C146.986 16.6278 147.438 16.5521 147.822 16.4006C148.21 16.2491 148.51 16.0384 148.724 15.7685C148.937 15.4986 149.043 15.1884 149.043 14.8381C149.043 14.5114 148.946 14.2367 148.752 14.0142C148.563 13.7917 148.283 13.6023 147.914 13.446C147.549 13.2898 147.102 13.1477 146.572 13.0199L144.988 12.6222C143.761 12.3239 142.793 11.8575 142.083 11.223C141.373 10.5885 141.02 9.7339 141.025 8.65909C141.02 7.77841 141.254 7.009 141.728 6.35085C142.206 5.69271 142.862 5.17898 143.695 4.80966C144.528 4.44034 145.475 4.25568 146.536 4.25568C147.616 4.25568 148.558 4.44034 149.363 4.80966C150.172 5.17898 150.802 5.69271 151.252 6.35085C151.702 7.009 151.934 7.77131 151.948 8.63778H149.001ZM158.29 6.99006V4.45455H170.236V6.99006H165.783V19H162.743V6.99006H158.29ZM181.188 4.45455H184.263V13.9006C184.263 14.9612 184.01 15.8892 183.503 16.6847C183.001 17.4801 182.298 18.1004 181.394 18.5455C180.49 18.9858 179.436 19.206 178.233 19.206C177.026 19.206 175.97 18.9858 175.066 18.5455C174.162 18.1004 173.458 17.4801 172.956 16.6847C172.455 15.8892 172.204 14.9612 172.204 13.9006V4.45455H175.279V13.6378C175.279 14.1918 175.4 14.6842 175.641 15.1151C175.887 15.5459 176.233 15.8845 176.678 16.1307C177.123 16.3769 177.642 16.5 178.233 16.5C178.83 16.5 179.349 16.3769 179.789 16.1307C180.234 15.8845 180.577 15.5459 180.819 15.1151C181.065 14.6842 181.188 14.1918 181.188 13.6378V4.45455ZM191.422 19V4.45455H197.161C198.264 4.45455 199.204 4.66525 199.981 5.08665C200.757 5.50331 201.349 6.08333 201.756 6.8267C202.168 7.56534 202.374 8.41761 202.374 9.38352C202.374 10.3494 202.166 11.2017 201.749 11.9403C201.332 12.679 200.729 13.2543 199.938 13.6662C199.152 14.0781 198.2 14.2841 197.083 14.2841H193.425V11.8196H196.586C197.178 11.8196 197.665 11.7178 198.049 11.5142C198.437 11.3059 198.726 11.0194 198.915 10.6548C199.109 10.2855 199.206 9.86174 199.206 9.38352C199.206 8.90057 199.109 8.47917 198.915 8.11932C198.726 7.75473 198.437 7.47301 198.049 7.27415C197.661 7.07055 197.168 6.96875 196.572 6.96875H194.498V19H191.422ZM204.372 19V4.45455H214.173V6.99006H207.447V10.456H213.669V12.9915H207.447V16.4645H214.201V19H204.372ZM221.774 19H216.618V4.45455H221.817C223.28 4.45455 224.539 4.74574 225.595 5.32812C226.651 5.90578 227.463 6.73674 228.031 7.82102C228.604 8.9053 228.89 10.2027 228.89 11.7131C228.89 13.2282 228.604 14.5303 228.031 15.6193C227.463 16.7083 226.646 17.544 225.581 18.1264C224.52 18.7088 223.251 19 221.774 19ZM219.693 16.3651H221.646C222.555 16.3651 223.32 16.2041 223.94 15.8821C224.565 15.5554 225.034 15.0511 225.346 14.3693C225.664 13.6828 225.822 12.7973 225.822 11.7131C225.822 10.6383 225.664 9.75994 225.346 9.07812C225.034 8.39631 224.568 7.89441 223.947 7.57244C223.327 7.25047 222.562 7.08949 221.653 7.08949H219.693V16.3651ZM234.244 4.45455V19H231.169V4.45455H234.244ZM241.93 19H236.774V4.45455H241.973C243.436 4.45455 244.695 4.74574 245.751 5.32812C246.807 5.90578 247.619 6.73674 248.187 7.82102C248.76 8.9053 249.047 10.2027 249.047 11.7131C249.047 13.2282 248.76 14.5303 248.187 15.6193C247.619 16.7083 246.802 17.544 245.737 18.1264C244.676 18.7088 243.407 19 241.93 19ZM239.849 16.3651H241.802C242.711 16.3651 243.476 16.2041 244.096 15.8821C244.721 15.5554 245.19 15.0511 245.503 14.3693C245.82 13.6828 245.979 12.7973 245.979 11.7131C245.979 10.6383 245.82 9.75994 245.503 9.07812C245.19 8.39631 244.724 7.89441 244.104 7.57244C243.483 7.25047 242.719 7.08949 241.809 7.08949H239.849V16.3651ZM264.691 11.7273C264.691 13.3134 264.391 14.6629 263.789 15.7756C263.193 16.8883 262.378 17.7382 261.346 18.3253C260.319 18.9077 259.163 19.1989 257.88 19.1989C256.588 19.1989 255.427 18.9053 254.4 18.3182C253.373 17.7311 252.561 16.8812 251.964 15.7685C251.367 14.6558 251.069 13.3087 251.069 11.7273C251.069 10.1411 251.367 8.79167 251.964 7.67898C252.561 6.56629 253.373 5.71875 254.4 5.13636C255.427 4.54924 256.588 4.25568 257.88 4.25568C259.163 4.25568 260.319 4.54924 261.346 5.13636C262.378 5.71875 263.193 6.56629 263.789 7.67898C264.391 8.79167 264.691 10.1411 264.691 11.7273ZM261.573 11.7273C261.573 10.6998 261.419 9.83333 261.112 9.12784C260.809 8.42235 260.38 7.88731 259.826 7.52273C259.272 7.15814 258.624 6.97585 257.88 6.97585C257.137 6.97585 256.488 7.15814 255.934 7.52273C255.38 7.88731 254.949 8.42235 254.642 9.12784C254.338 9.83333 254.187 10.6998 254.187 11.7273C254.187 12.7547 254.338 13.6212 254.642 14.3267C254.949 15.0322 255.38 15.5672 255.934 15.9318C256.488 16.2964 257.137 16.4787 257.88 16.4787C258.624 16.4787 259.272 16.2964 259.826 15.9318C260.38 15.5672 260.809 15.0322 261.112 14.3267C261.419 13.6212 261.573 12.7547 261.573 11.7273Z" fill="white"/>
<path d="M70.527 340.983L69.2699 312.977L76.9571 312.632C78.6355 312.556 80.0508 312.643 81.2031 312.891C82.3554 313.14 83.3496 313.546 84.1857 314.109C85.0204 314.642 85.7713 315.314 86.4383 316.125C87.1054 316.936 87.6879 317.871 88.1858 318.929C88.7124 319.957 89.1232 321.08 89.4181 322.298C89.743 323.514 89.9377 324.842 90.0023 326.28C90.0978 328.408 89.9291 330.338 89.4963 332.069C89.0622 333.77 88.3475 335.244 87.3524 336.489C86.3572 337.735 85.0503 338.725 83.4316 339.458C81.8414 340.16 79.9225 340.562 77.6748 340.663L70.527 340.983ZM76.5517 335.713L77.3609 335.677C79.1291 335.597 80.4902 335.146 81.4443 334.322C82.4283 333.497 83.0855 332.417 83.4159 331.081C83.7749 329.713 83.9175 328.205 83.8435 326.557C83.7614 324.729 83.5096 323.133 83.0881 321.771C82.6966 320.407 82.0188 319.356 81.0547 318.619C80.0893 317.851 78.7375 317.507 76.9993 317.585L75.7405 317.641L76.5517 335.713ZM94.308 339.916L94.08 334.836L99.5195 334.592L98.7185 316.745L93.5487 316.977L93.3207 311.897L109.864 311.155L110.092 316.234L104.652 316.479L105.454 334.326L111.118 334.071L111.346 339.151L94.308 339.916ZM123.034 338.627L113.146 311.007L119.349 310.729L125.171 329.026L129.015 310.295L135.084 310.023L127.799 338.413L123.034 338.627ZM138.499 337.933L137.241 309.926L156.167 309.076L156.393 314.111L143.716 314.68L143.98 320.569L154.365 320.103L154.591 325.138L144.206 325.604L144.521 332.617L157.109 332.052L157.335 337.087L138.499 337.933ZM160.571 336.942L159.314 308.935L168.62 308.517C170.957 308.412 172.891 308.671 174.42 309.293C175.98 309.914 177.147 310.837 177.923 312.064C178.729 313.289 179.17 314.741 179.245 316.419C179.291 317.438 179.127 318.466 178.753 319.504C178.407 320.51 177.879 321.45 177.167 322.323C176.455 323.166 175.599 323.85 174.602 324.375L180.891 336.03L174.327 336.324L168.477 325.416L166.544 325.502L167.045 336.651L160.571 336.942ZM166.312 320.333L169.459 320.191C170.508 320.144 171.32 319.838 171.895 319.271C172.499 318.674 172.78 317.895 172.736 316.936C172.71 316.337 172.551 315.803 172.259 315.336C171.968 314.869 171.561 314.496 171.038 314.22C170.515 313.943 169.894 313.821 169.175 313.853L166.028 313.994L166.312 320.333ZM192.154 336.065C190.266 336.15 188.426 335.977 186.635 335.547C184.873 335.085 183.427 334.324 182.298 333.264L185.127 328.047L185.336 327.677L185.797 327.927C185.867 328.134 185.952 328.355 186.052 328.591C186.182 328.795 186.449 329.054 186.853 329.366C187.594 329.813 188.391 330.183 189.245 330.475C190.099 330.767 190.976 330.907 191.877 330.897C192.506 330.869 193.059 330.799 193.534 330.687C194.039 330.575 194.467 330.405 194.818 330.179C195.168 329.953 195.425 329.657 195.588 329.289C195.781 328.89 195.865 328.421 195.841 327.881C195.828 327.611 195.771 327.344 195.669 327.078C195.596 326.781 195.463 326.502 195.271 326.24C195.078 325.948 194.78 325.662 194.377 325.379C194.004 325.096 193.524 324.787 192.939 324.453C192.353 324.119 191.617 323.776 190.731 323.426C188.771 322.583 187.203 321.767 186.026 320.979C184.88 320.19 184.029 319.312 183.476 318.346C182.95 317.349 182.656 316.146 182.593 314.737C182.531 313.358 182.88 312.096 183.639 310.951C184.428 309.805 185.513 308.87 186.892 308.148C188.271 307.425 189.799 307.026 191.478 306.951C192.766 306.893 193.941 306.975 195.002 307.198C196.093 307.419 197.1 307.779 198.024 308.279C198.977 308.776 199.862 309.427 200.679 310.231L197.043 314.539L196.788 314.866L196.367 314.524C196.326 314.286 196.271 314.063 196.202 313.856C196.131 313.619 195.923 313.328 195.577 312.983C195.079 312.585 194.557 312.338 194.012 312.242C193.466 312.117 192.834 312.07 192.114 312.102C191.605 312.125 191.143 312.206 190.729 312.345C190.313 312.454 189.96 312.62 189.67 312.843C189.378 313.036 189.148 313.257 188.979 313.504C188.84 313.751 188.776 314.009 188.788 314.279C188.801 314.548 188.842 314.802 188.913 315.039C188.982 315.246 189.112 315.465 189.303 315.697C189.493 315.929 189.774 316.171 190.146 316.425C190.548 316.677 191.056 316.97 191.672 317.302C192.316 317.604 193.113 317.959 194.062 318.366C195.533 319.021 196.778 319.656 197.796 320.271C198.815 320.886 199.625 321.54 200.227 322.234C200.857 322.896 201.311 323.642 201.588 324.47C201.896 325.297 202.074 326.25 202.122 327.329C202.185 328.738 201.886 330.087 201.223 331.378C200.56 332.669 199.482 333.754 197.99 334.632C196.497 335.479 194.551 335.957 192.154 336.065ZM206.695 334.872L206.467 329.792L211.906 329.547L211.105 311.7L205.936 311.933L205.708 306.853L222.251 306.11L222.479 311.19L217.039 311.434L217.84 329.281L223.505 329.027L223.733 334.107L206.695 334.872ZM237.738 334.019C235.34 334.126 233.322 333.646 231.682 332.579C230.043 331.511 228.77 329.917 227.864 327.795C226.986 325.642 226.478 323.008 226.338 319.891C226.199 316.804 226.472 314.179 227.156 312.016C227.868 309.822 228.993 308.12 230.53 306.91C232.067 305.699 234.035 305.041 236.432 304.933C238.8 304.827 240.804 305.307 242.443 306.375C244.083 307.442 245.355 309.037 246.261 311.159C247.166 313.25 247.688 315.839 247.826 318.926C247.966 322.043 247.681 324.714 246.97 326.938C246.259 329.162 245.135 330.879 243.597 332.089C242.059 333.269 240.105 333.912 237.738 334.019ZM237.512 328.984C238.441 328.942 239.22 328.577 239.85 327.888C240.478 327.169 240.941 326.097 241.237 324.672C241.562 323.216 241.674 321.364 241.574 319.117C241.481 317.049 241.209 315.334 240.757 313.973C240.334 312.581 239.778 311.555 239.087 310.895C238.397 310.235 237.587 309.926 236.658 309.968C235.699 310.011 234.891 310.393 234.232 311.113C233.604 311.832 233.141 312.904 232.845 314.328C232.577 315.722 232.49 317.452 232.583 319.52C232.683 321.768 232.931 323.604 233.325 325.028C233.748 326.42 234.305 327.446 234.995 328.106C235.714 328.734 236.553 329.027 237.512 328.984ZM232.888 304.236L231.324 301.514L238.766 296.72L241.073 300.941L232.888 304.236ZM248.819 304.918L255.607 304.613L264.368 321.157L263.16 304.274L268.734 304.024L269.139 304.006L269.161 304.5C269.019 304.687 268.923 304.886 268.872 305.099C268.852 305.31 268.853 305.67 268.876 306.179L270.036 332.028L263.832 332.307L254.886 314.645L255.696 332.672L250.076 332.924L248.819 304.918Z" fill="black"/>
</svg>
