<?xml version="1.0" standalone="no"?>
<!DOCTYPE svg PUBLIC "-//W3C//DTD SVG 20010904//EN"
 "http://www.w3.org/TR/2001/REC-SVG-20010904/DTD/svg10.dtd">
<svg version="1.0" xmlns="http://www.w3.org/2000/svg"
 width="300.000000pt" height="180.000000pt" viewBox="0 0 300.000000 180.000000"
 preserveAspectRatio="xMidYMid meet">
<metadata>
Created by potrace 1.16, written by Peter Selinger 2001-2019
</metadata>
<g transform="translate(0.000000,180.000000) scale(0.100000,-0.100000)"
fill="#000000" stroke="none">
<path d="M625 1553 c-39 -2 -73 -9 -77 -16 -10 -16 -9 -203 1 -341 11 -134 13
-136 125 -136 186 -1 356 -31 435 -77 l45 -26 -47 -42 -47 -41 -67 7 c-72 6
-125 25 -174 59 l-29 21 0 -50 0 -51 -202 -2 -203 -3 0 -30 0 -30 168 -3 168
-2 -27 -35 -26 -35 -120 0 -119 0 3 -32 3 -33 101 -5 100 -5 -8 -32 -9 -33
-147 0 c-81 0 -153 -4 -160 -9 -8 -4 -12 -19 -10 -32 3 -24 3 -24 160 -27
l157 -3 12 -42 c15 -58 36 -96 72 -135 l31 -32 -32 0 c-26 0 -32 4 -32 20 0
20 -5 21 -102 18 -84 -2 -103 -6 -103 -18 0 -10 14 -17 45 -20 27 -3 -22 -8
-119 -13 -161 -7 -339 -23 -373 -33 -26 -8 -22 -41 5 -47 19 -5 141 -16 342
-32 334 -26 1944 -26 2315 0 30 2 93 7 140 10 170 12 180 14 180 45 0 25 -5
29 -37 34 -33 5 -287 26 -319 26 -6 0 3 16 21 35 103 108 113 291 24 414 -38
54 -100 98 -163 116 -27 8 -53 21 -58 28 -5 8 -36 12 -97 12 l-89 0 -11 36
c-16 52 -15 52 34 46 l45 -7 0 33 c0 100 -40 244 -79 286 -32 34 -80 42 -101
16 -11 -14 -15 -12 -31 15 -22 36 -57 40 -84 10 -14 -15 -31 -20 -69 -20 -53
0 -96 -20 -96 -44 0 -18 14 -23 83 -31 47 -6 57 -11 57 -26 0 -32 -25 -32 -86
-1 -83 42 -158 62 -229 62 -86 0 -137 -28 -198 -111 -26 -35 -60 -69 -75 -76
-44 -20 -180 -16 -229 7 l-43 19 0 181 c0 175 -9 236 -36 253 -12 7 -423 15
-509 10z m423 -232 c2 -75 -1 -118 -9 -127 -15 -19 -358 -21 -377 -2 -13 13
-18 229 -5 242 4 3 93 5 197 4 l191 -3 3 -114z m1158 -425 c5 -29 1 -41 -25
-73 -16 -21 -44 -65 -60 -98 -25 -48 -28 -61 -16 -63 11 -3 13 -10 8 -30 -5
-15 -8 -58 -7 -97 1 -81 23 -140 75 -200 l34 -38 -34 6 c-18 4 -252 7 -518 7
l-485 0 16 23 c9 12 29 48 44 79 19 42 31 56 42 51 150 -59 142 -58 370 -58
182 0 352 14 368 29 1 2 -7 32 -18 67 -24 71 -22 102 14 169 13 25 31 70 41
100 13 39 33 69 71 107 29 29 57 53 63 53 6 0 13 -15 17 -34z m325 -201 c67
-44 97 -144 65 -218 -17 -41 -74 -91 -121 -107 -93 -31 -208 42 -230 147 -7
36 7 97 30 130 14 19 19 21 41 11 13 -6 23 -14 21 -17 -41 -72 -43 -129 -5
-176 26 -33 89 -50 132 -35 100 33 116 170 26 223 -15 9 -35 17 -44 17 -11 0
-16 9 -16 31 0 30 1 31 32 25 18 -4 49 -17 69 -31z m-1609 -9 c4 -6 -6 -17
-25 -26 -47 -23 -80 -76 -74 -123 7 -51 32 -86 74 -104 67 -27 140 5 164 72
11 29 18 35 41 35 33 0 34 -10 9 -65 -61 -135 -235 -149 -318 -26 -50 75 -39
158 33 229 39 39 45 42 66 31 13 -7 26 -17 30 -23z"/>
<path d="M254 966 c-3 -8 -4 -23 -2 -33 3 -17 20 -18 258 -18 l255 0 0 30 0
30 -253 3 c-214 2 -253 0 -258 -12z"/>
</g>
</svg>
