<?xml version="1.0" standalone="no"?>
<!DOCTYPE svg PUBLIC "-//W3C//DTD SVG 20010904//EN"
 "http://www.w3.org/TR/2001/REC-SVG-20010904/DTD/svg10.dtd">
<svg version="1.0" xmlns="http://www.w3.org/2000/svg"
 width="300.000000pt" height="180.000000pt" viewBox="0 0 300.000000 180.000000"
 preserveAspectRatio="xMidYMid meet">
<metadata>
Created by potrace 1.16, written by Peter Selinger 2001-2019
</metadata>
<g transform="translate(0.000000,180.000000) scale(0.100000,-0.100000)"
fill="#000000" stroke="none">
<path d="M998 1622 c-3 -115 -4 -118 -35 -157 -45 -56 -52 -103 -53 -331 0
-218 1 -214 -55 -214 -42 0 -37 -18 7 -26 54 -9 352 -9 396 0 49 11 38 23 -28
31 l-60 7 0 224 c0 241 -2 250 -56 324 -15 21 -25 46 -24 65 1 16 2 67 1 113
l-1 82 -44 0 -44 0 -4 -118z m122 -447 l0 -115 -75 0 -75 0 0 115 0 115 75 0
75 0 0 -115z"/>
<path d="M1700 1447 c-15 -6 -43 -38 -73 -86 -26 -42 -56 -90 -68 -108 l-20
-31 202 -129 202 -128 -194 -6 c-243 -8 -226 -6 -210 -21 9 -10 72 -13 246
-13 174 0 237 3 247 13 10 9 5 12 -25 12 -38 0 -50 14 -19 22 15 4 159 216
150 222 -2 1 -39 25 -83 53 -44 28 -136 86 -205 130 -108 68 -128 78 -150 70z"/>
<path d="M1390 1376 l0 -36 -85 0 c-78 0 -85 -2 -85 -20 0 -18 7 -20 85 -20
l85 0 0 -29 0 -30 70 40 c39 23 70 44 70 47 0 6 -100 66 -132 80 -5 2 -8 -12
-8 -32z"/>
<path d="M1303 1122 c-35 -20 -63 -39 -63 -43 0 -8 117 -79 131 -79 5 0 9 11
9 25 0 24 2 25 75 25 73 0 75 1 75 25 0 24 -2 25 -75 25 l-75 0 0 30 c0 17 -3
30 -7 30 -5 -1 -36 -17 -70 -38z"/>
<path d="M800 755 c0 -13 89 -15 740 -15 651 0 740 2 740 15 0 13 -89 15 -740
15 -651 0 -740 -2 -740 -15z"/>
<path d="M1150 367 l0 -253 -101 -11 c-106 -12 -140 -25 -94 -37 139 -35 951
-35 1090 0 36 9 22 22 -33 29 -26 3 -57 8 -69 11 l-23 4 0 255 0 255 -385 0
-385 0 0 -253z m750 -17 l0 -250 -365 0 -365 0 0 250 0 250 365 0 365 0 0
-250z"/>
<path d="M1207 553 c-4 -3 -7 -28 -7 -55 l0 -48 340 0 340 0 0 55 0 55 -333 0
c-184 0 -337 -3 -340 -7z"/>
<path d="M1691 408 c-5 -13 -21 -49 -35 -80 l-26 -58 25 0 c13 0 27 5 30 10 3
6 17 10 30 10 13 0 27 -4 30 -10 3 -5 15 -10 27 -10 16 0 19 5 14 23 -3 12
-11 48 -17 80 -11 54 -13 57 -41 57 -20 0 -31 -6 -37 -22z"/>
<path d="M1202 198 l3 -53 338 -3 337 -2 0 55 0 55 -341 0 -340 0 3 -52z"/>
</g>
</svg>
