<svg width="569" height="294" viewBox="0 0 569 294" fill="none" xmlns="http://www.w3.org/2000/svg">
<path d="M196 178.553L423.119 168.393L485.922 179.146L257.277 192.046L196 178.553Z" fill="#AB8D42"/>
<path d="M252.481 89.6795L481.105 78.394L566.522 94.5703L345.526 106.661L252.481 89.6795Z" fill="#AB8D42"/>
<path d="M208.361 115.989L563.393 96.2173L550.126 129.534L549.967 129.934L550.044 130.357L555.736 161.664L198.611 176.976L214.835 147.309L215.105 146.816L214.985 146.268L208.361 115.989Z" fill="#FCD165" stroke="#D1AE55" stroke-width="3"/>
<path d="M255.916 33.6511L559.696 16.6275L548.451 45.8666L548.232 46.4346L548.471 46.9942L559.537 72.9021L255.9 88.1669L263.613 63.3921L263.742 62.9783L263.63 62.5595L255.916 33.6511Z" fill="#FCD165" stroke="#D1AE55" stroke-width="3"/>
<path d="M237.894 194.753L488.675 180.234L476.78 204.938L476.559 205.398L476.664 205.897L482.803 235.177L232.187 247.462L244.33 224.453L244.59 223.961L244.466 223.418L237.894 194.753Z" fill="#FCD165" stroke="#D1AE55" stroke-width="3"/>
<path d="M359 292.089L333.5 253.338L380 251.089L359 292.089Z" fill="#FCD165"/>
<path d="M220 39.9709L186.25 58.1575V21.7844L220 39.9709Z" fill="#FCD165"/>
<path d="M194.929 46.1839C193.926 46.1839 193.059 46.004 192.33 45.6441C191.601 45.2843 191.04 44.7966 190.647 44.1811C190.258 43.5608 190.064 42.8695 190.064 42.1072C190.064 41.539 190.178 41.0347 190.405 40.5944C190.632 40.1541 190.95 39.7492 191.357 39.3799C191.764 39.0059 192.238 38.6342 192.777 38.2649L195.597 36.4112C195.962 36.1792 196.229 35.9353 196.4 35.6796C196.57 35.4192 196.655 35.1375 196.655 34.8345C196.655 34.5456 196.539 34.2781 196.307 34.0319C196.075 33.7857 195.746 33.665 195.32 33.6697C195.036 33.6697 194.79 33.7336 194.581 33.8615C194.373 33.9846 194.21 34.1479 194.091 34.3515C193.978 34.5504 193.921 34.7729 193.921 35.0191C193.921 35.3222 194.006 35.6299 194.176 35.9424C194.347 36.2549 194.574 36.5864 194.858 36.9367C195.142 37.2824 195.453 37.6564 195.789 38.0589L202.685 45.9708H199.532L193.779 39.5646C193.4 39.1337 193.021 38.6839 192.642 38.2151C192.268 37.7417 191.956 37.2398 191.705 36.7095C191.454 36.1744 191.328 35.5944 191.328 34.9694C191.328 34.2639 191.492 33.6294 191.819 33.066C192.15 32.5025 192.614 32.0575 193.211 31.7308C193.807 31.3993 194.503 31.2336 195.299 31.2336C196.075 31.2336 196.745 31.3922 197.309 31.7095C197.877 32.022 198.312 32.4386 198.615 32.9595C198.923 33.4756 199.077 34.0437 199.077 34.664C199.077 35.3506 198.907 35.9732 198.566 36.5319C198.23 37.0859 197.756 37.583 197.145 38.0234L194.176 40.1612C193.774 40.4547 193.476 40.7554 193.282 41.0632C193.092 41.3662 192.998 41.6574 192.998 41.9367C192.998 42.2824 193.083 42.5925 193.253 42.8671C193.424 43.1418 193.665 43.3596 193.978 43.5205C194.29 43.6768 194.657 43.7549 195.078 43.7549C195.59 43.7549 196.094 43.6389 196.591 43.4069C197.093 43.1702 197.548 42.8364 197.955 42.4055C198.367 41.9699 198.696 41.4538 198.942 40.8572C199.188 40.2606 199.311 39.6001 199.311 38.8757H201.819C201.819 39.7658 201.721 40.5684 201.527 41.2833C201.333 41.9936 201.063 42.6138 200.718 43.1441C200.372 43.6697 199.977 44.1006 199.532 44.4367C199.39 44.5267 199.252 44.6119 199.12 44.6924C198.987 44.7729 198.85 44.8581 198.708 44.9481C198.168 45.3837 197.564 45.6986 196.897 45.8927C196.234 46.0868 195.578 46.1839 194.929 46.1839Z" fill="black"/>
<path d="M326.501 67.4968L325.672 49.0354L319.798 49.299L319.649 45.9774L335.488 45.2664L335.637 48.5881L329.448 48.8659L330.277 67.3273L326.501 67.4968ZM339.088 66.9318L338.11 45.1487L352.306 44.5115L352.451 47.7283L342.101 48.1928L342.352 53.7872L350.848 53.4059L350.994 56.6576L342.498 57.0389L342.79 63.5424L353.035 63.0826L353.179 66.2993L339.088 66.9318ZM373.948 65.3671L372.97 43.584L380.383 43.2513C382.084 43.1749 383.485 43.4041 384.583 43.9387C385.705 44.4723 386.543 45.2054 387.099 46.1381C387.678 47.0697 387.994 48.1299 388.048 49.3187C388.086 50.1812 387.971 51.0038 387.703 51.7867C387.457 52.5451 387.044 53.2294 386.464 53.8393C385.906 54.4249 385.18 54.9013 384.286 55.2684C383.415 55.6345 382.361 55.8453 381.126 55.9007L377.559 56.0608L377.969 65.1866L373.948 65.3671ZM377.412 52.7741L380.699 52.6266C381.444 52.5931 382.068 52.4367 382.569 52.1572C383.071 51.8778 383.44 51.5109 383.676 51.0565C383.913 50.6021 384.018 50.0835 383.992 49.5008C383.966 48.918 383.814 48.411 383.538 47.9796C383.262 47.5482 382.861 47.2158 382.337 46.9824C381.836 46.748 381.213 46.6475 380.467 46.681L377.145 46.8301L377.412 52.7741ZM392.2 64.5479L392.057 61.3661L396.323 61.1746L395.63 45.7551L391.61 45.9356L391.467 42.7538L403.495 42.2139L403.637 45.3957L399.372 45.5872L400.064 61.0067L404.504 60.8074L404.647 63.9892L392.2 64.5479ZM409.018 63.793L408.04 42.0099L422.236 41.3728L422.38 44.5895L412.031 45.0541L412.282 50.6484L420.778 50.2671L420.924 53.5188L412.428 53.9001L412.72 60.4036L422.964 59.9438L423.109 63.1605L409.018 63.793ZM426.29 63.0177L425.313 41.2346L432.201 40.9255C433.996 40.8449 435.464 41.0476 436.607 41.5335C437.773 41.995 438.645 42.7033 439.225 43.6582C439.804 44.5899 440.123 45.6967 440.18 46.9788C440.216 47.7713 440.076 48.5717 439.762 49.3799C439.472 50.1871 439.037 50.919 438.46 51.5755C437.882 52.2321 437.181 52.7424 436.356 53.1064L441.465 62.3366L437.304 62.5234L432.492 53.6652L429.87 53.7829L430.276 62.8388L426.29 63.0177ZM429.722 50.4962L432.904 50.3534C434.023 50.3032 434.851 50.0091 435.387 49.4712C435.922 48.91 436.17 48.1748 436.129 47.2657C436.103 46.683 435.952 46.1759 435.675 45.7445C435.421 45.2888 435.032 44.9326 434.506 44.6759C434.004 44.4181 433.38 44.306 432.634 44.3395L429.452 44.4823L429.722 50.4962ZM443.668 62.2377L442.69 40.4547L448.319 40.202C449.602 40.1444 450.679 40.2129 451.552 40.4072C452.448 40.6006 453.209 40.9051 453.835 41.3208C454.484 41.7354 455.068 42.2581 455.587 42.8888C456.106 43.5195 456.547 44.2471 456.911 45.0716C457.298 45.8718 457.606 46.7455 457.835 47.6928C458.064 48.6402 458.205 49.6849 458.256 50.8271C458.284 52.4842 458.129 53.986 457.792 55.3324C457.478 56.6545 456.946 57.7996 456.195 58.7675C455.467 59.7344 454.498 60.502 453.285 61.0703C452.072 61.6153 450.603 61.9265 448.878 62.0039L443.668 62.2377ZM447.376 58.9882L448.635 58.9317C450.126 58.8647 451.301 58.4967 452.159 57.8276C453.038 57.1341 453.651 56.2074 453.996 55.0474C454.341 53.8874 454.468 52.5504 454.376 51.0363C454.304 49.4279 454.067 48.0372 453.664 46.8641C453.284 45.6899 452.66 44.7953 451.791 44.1803C450.923 43.5653 449.766 43.2902 448.321 43.3551L446.678 43.4289L447.376 58.9882ZM472.286 55.8731L463.755 56.256L464.187 53.3987L471.495 53.0707L472.286 55.8731ZM467.767 46.5113L464.017 61.3243L460.101 61.5001L466.495 39.246L468.383 39.1613L476.745 60.7531L472.759 60.932L467.767 46.5113ZM485.643 60.7391C484.198 60.8039 482.825 60.6553 481.524 60.2933C480.245 59.9069 479.166 59.2897 478.287 58.4416L480.065 55.1035L480.192 54.8175L480.514 54.9782C480.568 55.1393 480.634 55.3115 480.713 55.4949C480.814 55.6771 481.011 55.8902 481.302 56.1341C481.905 56.5508 482.562 56.8833 483.274 57.1317C484.008 57.3556 484.795 57.4604 485.635 57.4461C486.171 57.422 486.658 57.3418 487.096 57.2054C487.557 57.0679 487.945 56.8753 488.261 56.6275C488.577 56.3798 488.82 56.0769 488.991 55.7189C489.161 55.3375 489.235 54.9138 489.214 54.4476C489.202 54.1679 489.155 53.9014 489.073 53.6481C488.992 53.3948 488.853 53.1558 488.656 52.9311C488.481 52.682 488.225 52.4483 487.889 52.2298C487.551 51.988 487.131 51.7383 486.629 51.4805C486.126 51.1995 485.494 50.9125 484.733 50.6197C483.212 50.034 481.993 49.423 481.077 48.7868C480.185 48.1495 479.534 47.4546 479.127 46.7021C478.719 45.9496 478.494 45.0839 478.45 44.1049C478.402 43.0326 478.65 42.0638 479.195 41.1985C479.764 40.3322 480.561 39.6307 481.588 39.0941C482.615 38.5575 483.805 38.2589 485.157 38.1982C486.066 38.1574 486.921 38.2241 487.723 38.3983C488.525 38.5725 489.274 38.8542 489.968 39.2435C490.662 39.6094 491.303 40.0945 491.891 40.6988L489.702 43.4597L489.503 43.7138L489.214 43.5166C489.183 43.3312 489.128 43.1584 489.051 42.9984C488.996 42.814 488.834 42.5877 488.565 42.3195C488.103 41.9198 487.613 41.6615 487.094 41.5447C486.598 41.4268 486.012 41.383 485.336 41.4134C484.847 41.4354 484.418 41.513 484.05 41.6463C483.682 41.7796 483.363 41.9574 483.093 42.1797C482.846 42.401 482.647 42.6552 482.497 42.9422C482.368 43.2049 482.31 43.4761 482.323 43.7558C482.336 44.0356 482.383 44.3021 482.464 44.5553C482.544 44.7853 482.671 45.0131 482.845 45.2389C483.042 45.4637 483.309 45.6969 483.647 45.9387C484.007 46.1561 484.462 46.3926 485.01 46.6482C485.559 46.9039 486.238 47.1888 487.046 47.5028C488.164 47.9665 489.108 48.4263 489.875 48.8823C490.642 49.3151 491.248 49.7901 491.691 50.3074C492.157 50.8003 492.497 51.3573 492.712 51.9783C492.926 52.5759 493.05 53.2594 493.084 54.0286C493.132 55.0776 492.909 56.1036 492.417 57.1067C491.925 58.1097 491.122 58.9516 490.008 59.6322C488.893 60.2896 487.438 60.6585 485.643 60.7391Z" fill="black"/>
<path d="M271.526 47.7852L277.56 47.5143L285.347 62.22L284.273 47.213L289.228 46.9906L289.588 46.9745L289.608 47.414C289.482 47.5798 289.396 47.7572 289.351 47.9461C289.333 48.1337 289.334 48.454 289.354 48.9069L290.386 71.8838L284.871 72.1313L276.919 56.432L277.638 72.4559L272.643 72.6801L271.526 47.7852ZM301.636 71.8593C299.505 71.9549 297.71 71.5283 296.253 70.5793C294.796 69.6304 293.664 68.213 292.859 66.3273C292.079 64.4136 291.627 62.0716 291.502 59.301C291.379 56.5571 291.622 54.2239 292.229 52.3014C292.863 50.351 293.862 48.838 295.229 47.7623C296.595 46.6866 298.344 46.101 300.475 46.0053C302.58 45.9108 304.361 46.3381 305.818 47.287C307.276 48.236 308.407 49.6533 309.212 51.5391C310.016 53.3982 310.48 55.6998 310.603 58.4437C310.728 61.2142 310.474 63.588 309.842 65.565C309.21 67.542 308.211 69.0683 306.844 70.144C305.476 71.193 303.74 71.7648 301.636 71.8593ZM301.435 67.3838C302.261 67.3467 302.954 67.022 303.513 66.4096C304.072 65.7706 304.483 64.8179 304.746 63.5514C305.035 62.2572 305.135 60.6111 305.045 58.6131C304.963 56.7749 304.721 55.2509 304.32 54.041C303.944 52.8033 303.449 51.8912 302.835 51.3048C302.222 50.7184 301.502 50.4437 300.676 50.4808C299.824 50.5191 299.105 50.8583 298.52 51.4985C297.961 52.1375 297.55 53.0903 297.287 54.3567C297.049 55.5953 296.971 57.1336 297.053 58.9718C297.143 60.9698 297.363 62.6015 297.713 63.8671C298.089 65.1048 298.584 66.0169 299.198 66.6033C299.837 67.1619 300.582 67.422 301.435 67.3838Z" fill="black"/>
<path d="M504.526 34.7851L510.56 34.5142L518.347 49.2199L517.273 34.2129L522.228 33.9905L522.588 33.9744L522.608 34.4139C522.482 34.5797 522.396 34.7571 522.351 34.946C522.333 35.1336 522.334 35.4539 522.354 35.9068L523.386 58.8837L517.871 59.1312L509.919 43.4319L510.638 59.4558L505.643 59.68L504.526 34.7851ZM527.022 58.7204L526.819 54.205L531.654 53.988L530.942 38.1239L526.347 38.3302L526.144 33.8147L540.849 33.1547L541.052 37.6702L536.217 37.8872L536.929 53.7512L541.964 53.5252L542.167 58.0407L527.022 58.7204Z" fill="black"/>
<path d="M248.014 159.029C244.927 159.168 242.503 158.361 240.743 156.608C239.011 154.824 238.073 152.313 237.927 149.077L237.11 130.87L242.145 130.644L242.55 130.626L242.568 131.031C242.426 131.217 242.33 131.417 242.279 131.629C242.259 131.84 242.26 132.2 242.283 132.71L243.009 148.894C243.095 150.812 243.493 152.31 244.202 153.39C244.941 154.468 246.165 154.968 247.873 154.892C249.611 154.814 250.8 154.205 251.44 153.065C252.078 151.895 252.353 150.321 252.264 148.343L251.451 130.226L256.396 130.004L257.207 148.076C257.314 150.474 256.999 152.47 256.259 154.065C255.52 155.659 254.433 156.864 252.998 157.68C251.593 158.493 249.932 158.943 248.014 159.029ZM259.632 129.859L264.937 129.621L275.25 147.627L274.153 129.207L278.693 129.004L279.098 128.985L279.116 129.39C278.974 129.577 278.878 129.776 278.827 129.989C278.807 130.2 278.808 130.56 278.831 131.07L279.995 157.008L275.275 157.22L264.593 138.015L265.475 157.66L260.889 157.866L259.632 129.859Z" fill="black"/>
<path d="M495.637 146.865L494.38 118.858L501.617 118.533C503.266 118.459 504.651 118.547 505.773 118.797C506.926 119.046 507.904 119.437 508.709 119.972C509.544 120.505 510.295 121.177 510.962 121.988C511.629 122.798 512.196 123.734 512.664 124.794C513.161 125.823 513.557 126.946 513.852 128.164C514.147 129.382 514.327 130.725 514.393 132.194C514.428 134.325 514.23 136.255 513.797 137.987C513.393 139.686 512.708 141.159 511.743 142.403C510.808 143.646 509.561 144.633 508.002 145.364C506.442 146.064 504.553 146.465 502.335 146.564L495.637 146.865ZM500.404 142.687L502.023 142.614C503.941 142.528 505.451 142.055 506.554 141.195C507.685 140.303 508.472 139.111 508.916 137.62C509.359 136.129 509.522 134.41 509.405 132.463C509.312 130.395 509.007 128.607 508.488 127.099C508 125.589 507.198 124.439 506.081 123.648C504.965 122.857 503.477 122.504 501.619 122.587L499.506 122.682L500.404 142.687ZM518.519 145.838L517.262 117.831L535.513 117.012L535.699 121.148L522.392 121.745L522.715 128.938L533.639 128.447L533.827 132.628L522.903 133.118L523.278 141.48L536.45 140.889L536.636 145.025L518.519 145.838Z" fill="black"/>
<path d="M302.89 158.92L301.214 121.577L308.886 121.233L315.555 137.33L320.692 120.643L328.424 120.296L330.103 157.698L322.97 158.019L321.861 133.323L318.064 146.407L313.629 146.606L308.855 133.907L309.963 158.602L302.89 158.92ZM335.078 157.475L334.774 150.702L342.026 150.376L340.958 126.58L334.065 126.89L333.761 120.117L355.819 119.127L356.123 125.9L348.87 126.225L349.938 150.021L357.491 149.682L357.795 156.455L335.078 157.475ZM361.274 118.882L370.324 118.475L382.005 140.534L380.394 118.023L387.827 117.69L388.366 117.666L388.396 118.325C388.207 118.574 388.079 118.84 388.011 119.123C387.984 119.405 387.985 119.885 388.016 120.564L389.563 155.03L381.291 155.401L369.363 131.852L370.442 155.888L362.95 156.224L361.274 118.882ZM406.204 155.123C402.048 155.31 398.736 154.217 396.267 151.846C393.796 149.434 392.463 146.05 392.268 141.695L391.183 117.539L399.635 117.16L400.174 117.136L400.204 117.795C400.015 118.044 399.887 118.31 399.819 118.593C399.792 118.875 399.793 119.355 399.824 120.034L400.782 141.373C400.882 143.611 401.301 145.353 402.037 146.602C402.814 147.848 404.122 148.43 405.96 148.348C407.838 148.263 409.108 147.566 409.77 146.255C410.43 144.904 410.708 143.069 410.604 140.752L409.525 116.716L417.916 116.339L418.993 140.315C419.138 143.552 418.679 146.255 417.615 148.425C416.549 150.555 415.021 152.185 413.03 153.316C411.076 154.404 408.801 155.007 406.204 155.123ZM431.94 153.127L430.579 122.798L420.929 123.231L420.614 116.218L448.546 114.964L448.86 121.977L438.611 122.437L439.972 152.767L431.94 153.127ZM466.378 152.302C463.181 152.446 460.49 151.806 458.304 150.383C456.118 148.959 454.421 146.833 453.212 144.004C452.043 141.134 451.364 137.621 451.178 133.465C450.993 129.349 451.357 125.849 452.268 122.966C453.218 120.04 454.718 117.771 456.767 116.157C458.817 114.543 461.44 113.665 464.637 113.521C467.794 113.38 470.465 114.021 472.651 115.444C474.837 116.867 476.534 118.994 477.743 121.822C478.949 124.611 479.644 128.063 479.829 132.179C480.016 136.335 479.635 139.896 478.687 142.861C477.739 145.826 476.24 148.116 474.19 149.73C472.139 151.303 469.535 152.161 466.378 152.302ZM466.076 145.589C467.315 145.534 468.354 145.046 469.194 144.128C470.032 143.169 470.649 141.74 471.044 139.841C471.477 137.899 471.627 135.43 471.492 132.433C471.368 129.676 471.005 127.39 470.403 125.575C469.84 123.718 469.098 122.35 468.177 121.471C467.257 120.591 466.177 120.179 464.938 120.235C463.66 120.292 462.581 120.801 461.704 121.761C460.866 122.72 460.249 124.149 459.854 126.049C459.497 127.906 459.38 130.214 459.504 132.971C459.639 135.968 459.969 138.416 460.494 140.314C461.058 142.171 461.8 143.539 462.721 144.418C463.679 145.256 464.798 145.647 466.076 145.589Z" fill="black"/>
<path d="M32.5036 43.4545C32.5036 46.6269 31.9022 49.3258 30.6996 51.5511C29.5064 53.7765 27.8776 55.4763 25.8132 56.6506C23.7583 57.8153 21.4477 58.3977 18.8814 58.3977C16.2962 58.3977 13.9761 57.8106 11.9212 56.6364C9.86624 55.4621 8.24219 53.7623 7.04901 51.5369C5.85582 49.3116 5.25923 46.6174 5.25923 43.4545C5.25923 40.2822 5.85582 37.5833 7.04901 35.358C8.24219 33.1326 9.86624 31.4375 11.9212 30.2727C13.9761 29.0985 16.2962 28.5114 18.8814 28.5114C21.4477 28.5114 23.7583 29.0985 25.8132 30.2727C27.8776 31.4375 29.5064 33.1326 30.6996 35.358C31.9022 37.5833 32.5036 40.2822 32.5036 43.4545ZM26.2678 43.4545C26.2678 41.3996 25.96 39.6667 25.3445 38.2557C24.7384 36.8447 23.8814 35.7746 22.7734 35.0455C21.6655 34.3163 20.3681 33.9517 18.8814 33.9517C17.3946 33.9517 16.0973 34.3163 14.9893 35.0455C13.8814 35.7746 13.0196 36.8447 12.4041 38.2557C11.7981 39.6667 11.495 41.3996 11.495 43.4545C11.495 45.5095 11.7981 47.2424 12.4041 48.6534C13.0196 50.0644 13.8814 51.1345 14.9893 51.8636C16.0973 52.5928 17.3946 52.9574 18.8814 52.9574C20.3681 52.9574 21.6655 52.5928 22.7734 51.8636C23.8814 51.1345 24.7384 50.0644 25.3445 48.6534C25.96 47.2424 26.2678 45.5095 26.2678 43.4545ZM61.392 28.9091V58H56.0795L43.4233 39.6903H43.2102V58H37.0597V28.9091H42.4574L55.0142 47.2045H55.2699V28.9091H61.392ZM66.4737 58V28.9091H72.6243V52.929H85.0959V58H66.4737ZM95.3196 28.9091V58H89.169V28.9091H95.3196ZM124.712 28.9091V58H119.4L106.744 39.6903H106.531V58H100.38V28.9091H105.778L118.335 47.2045H118.59V28.9091H124.712ZM129.794 58V28.9091H149.396V33.9801H135.945V40.9119H148.388V45.983H135.945V52.929H149.453V58H129.794Z" fill="#FCD165"/>
<path d="M1.55913 19V4.45455H4.63441V10.456H10.8773V4.45455H13.9455V19H10.8773V12.9915H4.63441V19H1.55913ZM18.9881 19H15.6926L20.714 4.45455H24.677L29.6912 19H26.3958L22.7523 7.77841H22.6387L18.9881 19ZM18.7821 13.2827H26.5662V15.6832H18.7821V13.2827ZM39.0005 8.63778C38.9437 8.06487 38.6999 7.61979 38.269 7.30256C37.8381 6.98532 37.2534 6.8267 36.5147 6.8267C36.0128 6.8267 35.5891 6.89773 35.2434 7.03977C34.8978 7.17708 34.6326 7.36884 34.448 7.61506C34.2681 7.86127 34.1781 8.14062 34.1781 8.45312C34.1686 8.71354 34.2231 8.94081 34.3414 9.13494C34.4645 9.32907 34.6326 9.49716 34.8457 9.6392C35.0588 9.77651 35.305 9.89725 35.5843 10.0014C35.8637 10.1009 36.162 10.1861 36.4792 10.2571L37.786 10.5696C38.4205 10.7116 39.0029 10.901 39.5332 11.1378C40.0635 11.3745 40.5228 11.6657 40.911 12.0114C41.2993 12.357 41.6 12.7642 41.813 13.233C42.0308 13.7017 42.1421 14.2391 42.1468 14.8452C42.1421 15.7353 41.9148 16.5071 41.465 17.1605C41.0199 17.8092 40.376 18.3134 39.5332 18.6733C38.6951 19.0284 37.6842 19.206 36.5005 19.206C35.3263 19.206 34.3036 19.026 33.4324 18.6662C32.5659 18.3063 31.8888 17.7737 31.4011 17.0682C30.9181 16.358 30.6648 15.4796 30.6412 14.4332H33.617C33.6502 14.9209 33.7898 15.3281 34.036 15.6548C34.287 15.9768 34.6208 16.2206 35.0375 16.3864C35.4589 16.5473 35.9347 16.6278 36.465 16.6278C36.9859 16.6278 37.438 16.5521 37.8216 16.4006C38.2098 16.2491 38.5105 16.0384 38.7235 15.7685C38.9366 15.4986 39.0431 15.1884 39.0431 14.8381C39.0431 14.5114 38.9461 14.2367 38.752 14.0142C38.5626 13.7917 38.2832 13.6023 37.9139 13.446C37.5493 13.2898 37.1019 13.1477 36.5716 13.0199L34.9877 12.6222C33.7614 12.3239 32.7931 11.8575 32.0829 11.223C31.3727 10.5885 31.0199 9.7339 31.0247 8.65909C31.0199 7.77841 31.2543 7.009 31.7278 6.35085C32.206 5.69271 32.8618 5.17898 33.6951 4.80966C34.5285 4.44034 35.4754 4.25568 36.536 4.25568C37.6156 4.25568 38.5578 4.44034 39.3627 4.80966C40.1724 5.17898 40.8021 5.69271 41.252 6.35085C41.7018 7.009 41.9338 7.77131 41.948 8.63778H39.0005ZM48.2903 6.99006V4.45455H60.2363V6.99006H55.7832V19H52.7434V6.99006H48.2903ZM71.188 4.45455H74.2633V13.9006C74.2633 14.9612 74.01 15.8892 73.5034 16.6847C73.0015 17.4801 72.2984 18.1004 71.394 18.5455C70.4896 18.9858 69.4361 19.206 68.2335 19.206C67.0261 19.206 65.9702 18.9858 65.0659 18.5455C64.1615 18.1004 63.4584 17.4801 62.9565 16.6847C62.4546 15.8892 62.2037 14.9612 62.2037 13.9006V4.45455H65.2789V13.6378C65.2789 14.1918 65.3997 14.6842 65.6412 15.1151C65.8874 15.5459 66.233 15.8845 66.6781 16.1307C67.1232 16.3769 67.6416 16.5 68.2335 16.5C68.8301 16.5 69.3485 16.3769 69.7889 16.1307C70.234 15.8845 70.5772 15.5459 70.8187 15.1151C71.0649 14.6842 71.188 14.1918 71.188 13.6378V4.45455ZM81.4224 19V4.45455H87.161C88.2643 4.45455 89.2041 4.66525 89.9806 5.08665C90.7572 5.50331 91.349 6.08333 91.7562 6.8267C92.1681 7.56534 92.3741 8.41761 92.3741 9.38352C92.3741 10.3494 92.1658 11.2017 91.7491 11.9403C91.3324 12.679 90.7288 13.2543 89.938 13.6662C89.152 14.0781 88.2003 14.2841 87.0829 14.2841H83.4252V11.8196H86.5858C87.1776 11.8196 87.6653 11.7178 88.0488 11.5142C88.4371 11.3059 88.7259 11.0194 88.9153 10.6548C89.1094 10.2855 89.2065 9.86174 89.2065 9.38352C89.2065 8.90057 89.1094 8.47917 88.9153 8.11932C88.7259 7.75473 88.4371 7.47301 88.0488 7.27415C87.6606 7.07055 87.1681 6.96875 86.5716 6.96875H84.4977V19H81.4224ZM94.3716 19V4.45455H104.173V6.99006H97.4469V10.456H103.669V12.9915H97.4469V16.4645H104.201V19H94.3716ZM111.774 19H106.618V4.45455H111.817C113.28 4.45455 114.539 4.74574 115.595 5.32812C116.651 5.90578 117.463 6.73674 118.031 7.82102C118.604 8.9053 118.89 10.2027 118.89 11.7131C118.89 13.2282 118.604 14.5303 118.031 15.6193C117.463 16.7083 116.646 17.544 115.581 18.1264C114.52 18.7088 113.251 19 111.774 19ZM109.693 16.3651H111.646C112.555 16.3651 113.32 16.2041 113.94 15.8821C114.565 15.5554 115.034 15.0511 115.346 14.3693C115.664 13.6828 115.822 12.7973 115.822 11.7131C115.822 10.6383 115.664 9.75994 115.346 9.07812C115.034 8.39631 114.568 7.89441 113.947 7.57244C113.327 7.25047 112.562 7.08949 111.653 7.08949H109.693V16.3651ZM124.244 4.45455V19H121.169V4.45455H124.244ZM131.93 19H126.774V4.45455H131.973C133.436 4.45455 134.695 4.74574 135.751 5.32812C136.807 5.90578 137.619 6.73674 138.187 7.82102C138.76 8.9053 139.047 10.2027 139.047 11.7131C139.047 13.2282 138.76 14.5303 138.187 15.6193C137.619 16.7083 136.802 17.544 135.737 18.1264C134.676 18.7088 133.407 19 131.93 19ZM129.849 16.3651H131.802C132.711 16.3651 133.476 16.2041 134.096 15.8821C134.721 15.5554 135.19 15.0511 135.503 14.3693C135.82 13.6828 135.979 12.7973 135.979 11.7131C135.979 10.6383 135.82 9.75994 135.503 9.07812C135.19 8.39631 134.724 7.89441 134.104 7.57244C133.483 7.25047 132.719 7.08949 131.809 7.08949H129.849V16.3651ZM154.691 11.7273C154.691 13.3134 154.391 14.6629 153.789 15.7756C153.193 16.8883 152.378 17.7382 151.346 18.3253C150.319 18.9077 149.163 19.1989 147.88 19.1989C146.588 19.1989 145.427 18.9053 144.4 18.3182C143.373 17.7311 142.561 16.8812 141.964 15.7685C141.367 14.6558 141.069 13.3087 141.069 11.7273C141.069 10.1411 141.367 8.79167 141.964 7.67898C142.561 6.56629 143.373 5.71875 144.4 5.13636C145.427 4.54924 146.588 4.25568 147.88 4.25568C149.163 4.25568 150.319 4.54924 151.346 5.13636C152.378 5.71875 153.193 6.56629 153.789 7.67898C154.391 8.79167 154.691 10.1411 154.691 11.7273ZM151.573 11.7273C151.573 10.6998 151.419 9.83333 151.112 9.12784C150.809 8.42235 150.38 7.88731 149.826 7.52273C149.272 7.15814 148.624 6.97585 147.88 6.97585C147.137 6.97585 146.488 7.15814 145.934 7.52273C145.38 7.88731 144.949 8.42235 144.642 9.12784C144.338 9.83333 144.187 10.6998 144.187 11.7273C144.187 12.7547 144.338 13.6212 144.642 14.3267C144.949 15.0322 145.38 15.5672 145.934 15.9318C146.488 16.2964 147.137 16.4787 147.88 16.4787C148.624 16.4787 149.272 16.2964 149.826 15.9318C150.38 15.5672 150.809 15.0322 151.112 14.3267C151.419 13.6212 151.573 12.7547 151.573 11.7273Z" fill="white"/>
<path d="M263.527 230.983L262.27 202.977L269.957 202.632C271.635 202.556 273.051 202.643 274.203 202.891C275.355 203.14 276.35 203.546 277.186 204.109C278.02 204.642 278.771 205.314 279.438 206.125C280.105 206.936 280.688 207.871 281.186 208.929C281.712 209.957 282.123 211.08 282.418 212.298C282.743 213.514 282.938 214.842 283.002 216.28C283.098 218.408 282.929 220.338 282.496 222.069C282.062 223.77 281.348 225.244 280.352 226.489C279.357 227.735 278.05 228.725 276.432 229.458C274.841 230.16 272.923 230.562 270.675 230.663L263.527 230.983ZM269.552 225.713L270.361 225.677C272.129 225.597 273.49 225.146 274.444 224.322C275.428 223.497 276.085 222.417 276.416 221.081C276.775 219.713 276.917 218.205 276.843 216.557C276.761 214.729 276.51 213.133 276.088 211.771C275.697 210.407 275.019 209.356 274.055 208.619C273.089 207.851 271.738 207.507 269.999 207.585L268.741 207.641L269.552 225.713ZM287.308 229.916L287.08 224.836L292.52 224.592L291.718 206.745L286.549 206.977L286.321 201.897L302.864 201.155L303.092 206.234L297.652 206.479L298.454 224.326L304.118 224.071L304.346 229.151L287.308 229.916ZM316.034 228.627L306.146 201.007L312.349 200.729L318.171 219.026L322.015 200.295L328.084 200.023L320.799 228.413L316.034 228.627ZM331.499 227.933L330.241 199.926L349.167 199.076L349.393 204.111L336.716 204.68L336.98 210.569L347.365 210.103L347.591 215.138L337.206 215.604L337.521 222.617L350.109 222.052L350.335 227.087L331.499 227.933ZM353.571 226.942L352.314 198.935L361.62 198.517C363.957 198.412 365.891 198.671 367.42 199.293C368.98 199.914 370.147 200.837 370.923 202.064C371.729 203.289 372.17 204.741 372.245 206.419C372.291 207.438 372.127 208.466 371.753 209.504C371.407 210.51 370.879 211.45 370.167 212.323C369.455 213.166 368.599 213.85 367.602 214.375L373.891 226.03L367.327 226.324L361.477 215.416L359.544 215.502L360.045 226.651L353.571 226.942ZM359.312 210.333L362.459 210.191C363.508 210.144 364.32 209.838 364.895 209.271C365.499 208.674 365.78 207.895 365.736 206.936C365.71 206.337 365.551 205.803 365.259 205.336C364.968 204.869 364.561 204.496 364.038 204.22C363.515 203.943 362.894 203.821 362.175 203.853L359.028 203.994L359.312 210.333ZM385.154 226.065C383.266 226.15 381.426 225.977 379.635 225.547C377.873 225.085 376.427 224.324 375.298 223.264L378.127 218.047L378.336 217.677L378.797 217.927C378.867 218.134 378.952 218.355 379.052 218.591C379.182 218.795 379.449 219.054 379.853 219.366C380.594 219.813 381.391 220.183 382.245 220.475C383.099 220.767 383.976 220.907 384.877 220.897C385.506 220.869 386.059 220.799 386.534 220.687C387.039 220.575 387.467 220.405 387.818 220.179C388.168 219.953 388.425 219.657 388.588 219.289C388.781 218.89 388.865 218.421 388.841 217.881C388.828 217.611 388.771 217.344 388.669 217.078C388.596 216.781 388.463 216.502 388.271 216.24C388.078 215.948 387.78 215.662 387.377 215.379C387.004 215.096 386.524 214.787 385.939 214.453C385.353 214.119 384.617 213.776 383.731 213.426C381.771 212.583 380.203 211.767 379.026 210.979C377.88 210.19 377.029 209.312 376.476 208.346C375.95 207.349 375.656 206.146 375.593 204.737C375.531 203.358 375.88 202.096 376.639 200.951C377.428 199.805 378.513 198.87 379.892 198.148C381.271 197.425 382.799 197.026 384.478 196.951C385.766 196.893 386.941 196.975 388.002 197.198C389.093 197.419 390.1 197.779 391.024 198.279C391.977 198.776 392.862 199.427 393.679 200.231L390.043 204.539L389.788 204.866L389.367 204.524C389.326 204.286 389.271 204.063 389.202 203.856C389.131 203.619 388.923 203.328 388.577 202.983C388.079 202.585 387.557 202.338 387.012 202.242C386.466 202.117 385.834 202.07 385.114 202.102C384.605 202.125 384.143 202.206 383.729 202.345C383.313 202.454 382.96 202.62 382.67 202.843C382.378 203.036 382.148 203.257 381.979 203.504C381.84 203.751 381.776 204.009 381.788 204.279C381.801 204.548 381.842 204.802 381.913 205.039C381.982 205.246 382.112 205.465 382.303 205.697C382.493 205.929 382.774 206.171 383.146 206.425C383.548 206.677 384.056 206.97 384.672 207.302C385.316 207.604 386.113 207.959 387.062 208.366C388.533 209.021 389.778 209.656 390.796 210.271C391.815 210.886 392.625 211.54 393.227 212.234C393.857 212.896 394.311 213.642 394.588 214.47C394.896 215.297 395.074 216.25 395.122 217.329C395.185 218.738 394.886 220.087 394.223 221.378C393.56 222.669 392.482 223.754 390.99 224.632C389.497 225.479 387.551 225.957 385.154 226.065ZM399.695 224.872L399.467 219.792L404.906 219.547L404.105 201.7L398.936 201.933L398.708 196.853L415.251 196.11L415.479 201.19L410.039 201.434L410.84 219.281L416.505 219.027L416.733 224.107L399.695 224.872ZM430.738 224.019C428.34 224.126 426.322 223.646 424.682 222.579C423.043 221.511 421.77 219.917 420.864 217.795C419.986 215.642 419.478 213.008 419.338 209.891C419.199 206.804 419.472 204.179 420.156 202.016C420.868 199.822 421.993 198.12 423.53 196.91C425.067 195.699 427.035 195.041 429.432 194.933C431.8 194.827 433.804 195.307 435.443 196.375C437.083 197.442 438.355 199.037 439.261 201.159C440.166 203.25 440.688 205.839 440.826 208.926C440.966 212.043 440.681 214.714 439.97 216.938C439.259 219.162 438.135 220.879 436.597 222.089C435.059 223.269 433.105 223.912 430.738 224.019ZM430.512 218.984C431.441 218.942 432.22 218.577 432.85 217.888C433.478 217.169 433.941 216.097 434.237 214.672C434.562 213.216 434.674 211.364 434.574 209.117C434.481 207.049 434.209 205.334 433.757 203.973C433.334 202.581 432.778 201.555 432.087 200.895C431.397 200.235 430.587 199.926 429.658 199.968C428.699 200.011 427.891 200.393 427.232 201.113C426.604 201.832 426.141 202.904 425.845 204.328C425.577 205.722 425.49 207.452 425.583 209.52C425.683 211.768 425.931 213.604 426.325 215.028C426.748 216.42 427.305 217.446 427.995 218.106C428.714 218.734 429.553 219.027 430.512 218.984ZM425.888 194.236L424.324 191.514L431.766 186.72L434.073 190.941L425.888 194.236ZM441.819 194.918L448.607 194.613L457.368 211.157L456.16 194.274L461.734 194.024L462.139 194.006L462.161 194.5C462.019 194.687 461.923 194.886 461.872 195.099C461.852 195.31 461.853 195.67 461.876 196.179L463.036 222.028L456.832 222.307L447.886 204.645L448.696 222.672L443.076 222.924L441.819 194.918Z" fill="black"/>
</svg>
